<svg width="232" height="165" viewBox="0 0 232 165" fill="none" xmlns="http://www.w3.org/2000/svg">
<g clip-path="url(#clip0_1111_8333)">
<path d="M157.2 163.5C154.2 162.4 152 160.5 150.5 158.9C149.8 158.1 149.3 157.4 148.9 156.9C148.6 156.4 148.4 156.1 148.4 156.1C148.4 156.1 149.8 155.9 151.9 156.1C152.9 156.2 154.1 156.2 155.4 156.5C156 156.6 156.7 156.7 157.4 156.9C158.1 157.1 158.8 157.3 159.5 157.5C159.9 157.6 160.2 157.8 160.5 157.9C160.8 158 161.2 158.2 161.5 158.3C162.2 158.6 162.8 158.9 163.4 159.3C163.7 159.5 164 159.6 164.3 159.8C164.6 160 164.9 160.1 165.1 160.3C165.6 160.6 166.1 161 166.6 161.3C167.5 161.9 168.2 162.5 168.7 162.9C169.2 163.3 169.5 163.6 169.5 163.6C169.5 163.6 169.4 163.6 169.2 163.7C169 163.8 168.8 163.8 168.4 163.9C167.7 164.1 166.8 164.3 165.6 164.5C165 164.6 164.4 164.6 163.7 164.6C163 164.6 162.3 164.6 161.6 164.6C160.9 164.6 160.1 164.4 159.4 164.3C158.7 164 157.9 163.8 157.2 163.5ZM169.7 143.9C169.3 144.4 168.9 145 168.5 145.6C168.1 146.2 167.8 146.7 167.5 147.3C166.9 148.4 166.3 149.5 165.9 150.5C165.5 151.4 165.1 152.3 164.9 152.9C164.7 153.5 164.6 153.8 164.6 153.8C164.6 153.8 164.9 153.8 165.5 153.6C165.8 153.5 166.2 153.4 166.6 153.3C167 153.2 167.4 153 167.9 152.8C168.4 152.6 168.9 152.4 169.4 152.1C169.7 152 169.9 151.8 170.2 151.7C170.5 151.5 170.7 151.4 171 151.2C172.1 150.5 173.2 149.6 174.1 148.4C174.6 147.8 175 147.2 175.3 146.7C175.5 146.4 175.6 146.1 175.8 145.8C175.9 145.5 176.1 145.2 176.2 144.9C176.7 143.7 177 142.5 177.2 141.5C177.4 140.5 177.5 139.6 177.5 139C177.5 138.4 177.5 138 177.5 138C177.5 138 177.2 138.1 176.7 138.4C176.5 138.5 176.2 138.7 175.9 138.9C175.6 139.1 175.2 139.3 174.8 139.5C174 140 173.2 140.6 172.3 141.3C171.9 141.7 171.4 142.1 171 142.5L170.7 142.9L170.4 143.2C170.1 143.4 169.9 143.6 169.7 143.9ZM174.7 159.4C173.9 159.3 173.2 159.2 172.5 159C171.8 158.8 171.1 158.5 170.5 158.3C169.2 157.8 168.2 157.1 167.3 156.5C166.4 155.9 165.8 155.3 165.3 154.8C164.8 154.4 164.6 154.1 164.6 154.1C164.6 154.1 164.9 154 165.5 153.8C165.8 153.7 166.2 153.6 166.6 153.6C167 153.5 167.5 153.4 168 153.3C168.5 153.2 169.1 153.1 169.7 153C170 153 170.3 152.9 170.6 152.9C170.9 152.9 171.2 152.8 171.6 152.8C172.9 152.7 174.3 152.7 175.8 152.9C176.5 153 177.3 153.1 178 153.2C178.4 153.3 178.7 153.4 179 153.4C179.3 153.5 179.7 153.6 180 153.6C181.3 153.9 182.5 154.4 183.5 154.8C184.5 155.2 185.3 155.6 185.9 155.9C186.5 156.2 186.8 156.4 186.8 156.4C186.8 156.4 186.5 156.6 185.8 157C185.5 157.2 185.1 157.4 184.7 157.6C184.3 157.8 183.8 158 183.2 158.2C182.1 158.6 180.8 159 179.4 159.2C178.7 159.3 177.9 159.4 177.2 159.4C177 159.4 176.8 159.4 176.6 159.4C176.4 159.4 176.2 159.4 176 159.4C175.5 159.5 175.1 159.5 174.7 159.4ZM182.8 137.4C182.5 138 182.2 138.6 182 139.3C181.7 139.9 181.5 140.6 181.3 141.2C181.2 141.5 181.1 141.8 181 142.1C180.9 142.4 180.8 142.7 180.8 143C180.6 143.6 180.5 144.1 180.4 144.7C180.2 145.7 180 146.6 180 147.3C180 147.6 179.9 147.9 179.9 148C179.9 148.2 179.9 148.3 179.9 148.3C179.9 148.3 180 148.3 180.1 148.2C180.3 148.1 180.5 148 180.7 147.9C181.2 147.6 182 147.2 182.9 146.6C183.3 146.3 183.8 145.9 184.2 145.6C184.7 145.2 185.1 144.8 185.6 144.3C185.7 144.2 185.8 144.1 185.9 143.9C186 143.8 186.1 143.6 186.2 143.5C186.4 143.2 186.6 143 186.8 142.7C187.2 142.1 187.6 141.5 187.9 140.9C188.6 139.6 189 138.2 189.2 136.9C189.4 135.6 189.5 134.4 189.5 133.4C189.5 132.4 189.4 131.5 189.3 130.9C189.2 130.3 189.1 129.9 189.1 129.9C189.1 129.9 189 129.9 188.9 130C188.8 130.1 188.6 130.2 188.4 130.4C188 130.7 187.4 131.2 186.8 131.9C185.6 133.1 184 134.9 182.8 137.4ZM191 151.4C190.2 151.5 189.4 151.5 188.7 151.5C188 151.5 187.3 151.4 186.6 151.3C186.3 151.2 185.9 151.2 185.6 151.1C185.3 151 185 150.9 184.7 150.8C184.1 150.6 183.6 150.4 183.1 150.2C182.1 149.8 181.4 149.4 180.8 149.1C180.5 148.9 180.3 148.8 180.2 148.7C180.1 148.6 180 148.6 180 148.6C180 148.6 180.3 148.4 180.8 148.1C181.3 147.8 182.1 147.4 183.1 147C183.6 146.8 184.1 146.6 184.7 146.4C185.3 146.2 185.9 146 186.5 145.8C186.7 145.8 186.8 145.7 187 145.7C187.2 145.7 187.3 145.6 187.5 145.6C187.8 145.5 188.2 145.4 188.5 145.3C189.2 145.1 189.9 145 190.7 144.9C192.2 144.7 193.6 144.6 195 144.7C196.3 144.7 197.6 144.9 198.6 145C199.7 145.2 200.6 145.4 201.2 145.5C201.8 145.6 202.2 145.8 202.2 145.8C202.2 145.8 202.1 145.9 202 146C201.9 146.1 201.7 146.3 201.4 146.6C200.9 147.1 200.1 147.7 199.1 148.3C198.9 148.5 198.6 148.6 198.3 148.8C198 149 197.7 149.1 197.4 149.3C196.8 149.6 196.2 149.9 195.5 150.2C195.2 150.3 194.8 150.5 194.5 150.6C194.1 150.7 193.8 150.8 193.4 150.9C192.5 151.1 191.8 151.3 191 151.4ZM194.2 128C194 128.7 193.9 129.3 193.8 130C193.7 130.3 193.7 130.7 193.7 131C193.7 131.3 193.6 131.7 193.6 132C193.5 133.3 193.4 134.5 193.5 135.6C193.5 136.7 193.5 137.5 193.6 138.2C193.6 138.8 193.7 139.2 193.7 139.2C193.7 139.2 194 139 194.5 138.6C195 138.2 195.6 137.6 196.3 136.8C196.7 136.4 197 136 197.4 135.5C197.8 135 198.1 134.5 198.4 133.9C198.7 133.3 199.1 132.7 199.3 132.1C199.6 131.4 199.8 130.7 200 130C200.2 129.3 200.3 128.6 200.4 127.9C200.5 127.2 200.5 126.5 200.5 125.9C200.5 125.2 200.4 124.6 200.4 124C200.3 123.4 200.2 122.9 200.1 122.3C199.9 121.3 199.6 120.5 199.4 119.9C199.2 119.3 199 119 199 119C199 119 198.8 119.2 198.5 119.7C198.3 119.9 198.1 120.2 197.9 120.5C197.7 120.8 197.5 121.2 197.2 121.6C196.9 122 196.7 122.4 196.4 122.9C196.3 123.1 196.1 123.4 196 123.6C195.9 123.7 195.9 123.9 195.8 124C195.7 124.1 195.7 124.3 195.6 124.4C195.3 124.9 195.1 125.5 194.9 126.1C194.8 126.4 194.7 126.7 194.6 127.1C194.4 127.4 194.3 127.7 194.2 128ZM205.1 139.7C204.3 140 203.6 140.2 202.9 140.3C202.5 140.4 202.2 140.4 201.8 140.5C201.4 140.5 201.1 140.6 200.8 140.6C199.4 140.7 198.2 140.6 197.2 140.4C196.2 140.2 195.3 140 194.7 139.8C194.1 139.6 193.8 139.5 193.8 139.5C193.8 139.5 194.1 139.2 194.5 138.8C195 138.4 195.6 137.8 196.5 137.2C196.9 136.9 197.4 136.6 197.9 136.2C198.4 135.9 198.9 135.5 199.5 135.2C200.1 134.9 200.7 134.5 201.3 134.2C201.9 133.9 202.6 133.6 203.3 133.3C204 133 204.7 132.8 205.4 132.6C206.1 132.4 206.8 132.2 207.4 132.1C208.1 132 208.7 131.9 209.3 131.8C209.9 131.7 210.5 131.7 211 131.6C212.1 131.5 213 131.5 213.6 131.5C214.2 131.5 214.6 131.5 214.6 131.5C214.6 131.5 214.4 131.9 214 132.4C213.8 132.7 213.5 133 213.2 133.4C212.9 133.8 212.5 134.2 212.1 134.6C211.7 135 211.2 135.5 210.7 135.9C210.4 136.1 210.2 136.4 209.9 136.6C209.8 136.7 209.6 136.8 209.5 136.9C209.4 137 209.2 137.1 209.1 137.2C208.5 137.6 207.8 138 207.2 138.4C206.9 138.6 206.5 138.8 206.2 138.9C205.9 139.5 205.5 139.6 205.1 139.7ZM203.4 116.2C203.4 116.6 203.4 116.9 203.4 117.3C203.4 117.7 203.4 118 203.4 118.3C203.4 119 203.5 119.6 203.6 120.3C203.7 120.9 203.8 121.6 203.9 122.2C204 122.8 204.1 123.3 204.2 123.9C204.4 124.9 204.7 125.8 204.8 126.4C205 127 205.1 127.4 205.1 127.4C205.1 127.4 205.3 127.1 205.7 126.6C205.9 126.4 206.1 126 206.4 125.7C206.6 125.3 206.9 124.9 207.2 124.5C207.7 123.6 208.3 122.4 208.7 121.2C208.9 120.6 209.1 119.9 209.2 119.2C209.3 118.5 209.4 117.8 209.5 117C209.5 116.2 209.5 115.5 209.4 114.8C209.3 114.1 209.2 113.4 209.1 112.8C208.8 111.5 208.4 110.4 207.9 109.5C207.8 109.3 207.7 109 207.6 108.8C207.5 108.6 207.4 108.4 207.3 108.2C207.1 107.8 206.9 107.5 206.7 107.3C206.4 106.8 206.1 106.5 206.1 106.5C206.1 106.5 205.9 106.8 205.7 107.3C205.5 107.8 205.1 108.5 204.8 109.4C204.6 109.8 204.5 110.3 204.3 110.8C204.1 111.3 204 111.9 203.9 112.4C203.8 113 203.7 113.6 203.6 114.3C203.5 114.8 203.4 115.5 203.4 116.2ZM216.5 125.2C216.2 125.4 215.8 125.6 215.5 125.8C215.3 125.9 215.2 126 215 126.1C214.8 126.2 214.7 126.3 214.5 126.3C213.8 126.6 213.1 126.8 212.5 127C211.9 127.2 211.2 127.3 210.6 127.5C210 127.6 209.4 127.7 208.9 127.7C207.8 127.8 207 127.7 206.4 127.7C205.8 127.7 205.4 127.6 205.4 127.6C205.4 127.6 205.6 127.3 206 126.8C206.2 126.5 206.4 126.2 206.7 125.9C207 125.6 207.3 125.2 207.6 124.8C208.3 124 209.1 123.1 210.1 122.2C210.6 121.7 211.1 121.3 211.7 120.8C212.3 120.4 212.9 119.9 213.5 119.5C214.1 119.1 214.8 118.7 215.4 118.3C216 118 216.7 117.7 217.3 117.4C218.5 116.8 219.7 116.4 220.7 116.1C221 116 221.2 115.9 221.4 115.9C221.6 115.8 221.9 115.8 222.1 115.7C222.5 115.6 222.9 115.5 223.2 115.4C223.8 115.3 224.2 115.2 224.2 115.2C224.2 115.2 224.1 115.6 223.8 116.3C223.5 117 223.1 117.9 222.4 118.9C222.1 119.4 221.7 120 221.3 120.5C220.9 121 220.4 121.6 219.9 122.2C219.4 122.8 218.9 123.3 218.3 123.8C217.8 124.2 217.2 124.7 216.5 125.2ZM209.9 102.6C210.1 104 210.5 105.3 210.9 106.5C211.3 107.7 211.8 108.8 212.2 109.8C212.6 110.8 213.1 111.6 213.4 112.1C213.7 112.6 213.9 113 213.9 113C213.9 113 214.1 112.7 214.4 112.1C214.7 111.5 215 110.7 215.3 109.7C215.7 108.7 215.9 107.4 216 106.1C216 105.8 216.1 105.4 216.1 105.1C216.1 104.8 216.1 104.4 216.1 104C216.1 103.3 216 102.6 215.9 101.8C215.8 101.4 215.8 101.1 215.7 100.7C215.6 100.3 215.5 100 215.4 99.7C215.2 99 214.9 98.4 214.6 97.8C214.1 96.6 213.4 95.6 212.7 94.8C212.1 94 211.5 93.4 211.1 93C210.7 92.6 210.4 92.4 210.4 92.4C210.4 92.4 210 93.6 209.8 95.5C209.7 96.4 209.6 97.5 209.6 98.7C209.5 99.9 209.6 101.2 209.9 102.6ZM224.6 108.3C223.4 109.5 222.2 110.4 221.1 111.1C219.9 111.8 218.7 112.2 217.7 112.6C216.7 112.9 215.9 113.1 215.2 113.2C214.6 113.3 214.2 113.3 214.2 113.3C214.2 113.3 214.3 113 214.6 112.4C214.8 111.8 215.2 111 215.7 110.1C216.2 109.2 216.8 108.1 217.6 107C217.8 106.7 218 106.4 218.2 106.2C218.4 105.9 218.6 105.6 218.8 105.3C219.2 104.7 219.7 104.2 220.3 103.6C220.6 103.3 220.8 103.1 221.1 102.8C221.4 102.5 221.6 102.3 221.9 102C222.4 101.5 223 101.1 223.5 100.6C224.6 99.8 225.6 99.1 226.6 98.5C227.5 97.9 228.3 97.5 228.9 97.2C229.5 96.9 229.8 96.8 229.8 96.8C229.8 96.8 229.6 98.5 228.9 100.8C228.5 102 227.9 103.3 227.2 104.6C226.6 105.8 225.7 107.1 224.6 108.3ZM213.3 87.9C213.6 88.5 213.9 89.2 214.2 89.8C214.5 90.4 214.8 91 215.1 91.5C215.8 92.6 216.5 93.6 217.1 94.4C217.7 95.2 218.3 95.9 218.7 96.4C219.1 96.9 219.4 97.1 219.4 97.1C219.4 97.1 219.5 96.8 219.7 96.1C219.8 95.8 219.9 95.4 219.9 95C219.9 94.8 220 94.6 220 94.3C220 94.1 220 93.8 220.1 93.5C220.1 93 220.2 92.4 220.2 91.8C220.2 91.2 220.2 90.5 220.1 89.9C220 89.2 219.9 88.5 219.7 87.9C219.6 87.6 219.5 87.2 219.4 86.9C219.3 86.6 219.2 86.2 219 85.9C218.7 85.2 218.4 84.6 218 84C217.6 83.4 217.3 82.9 216.9 82.3C216.1 81.3 215.2 80.5 214.5 79.8C214.1 79.5 213.8 79.2 213.4 79C213.1 78.8 212.8 78.6 212.5 78.4C212 78.1 211.7 77.9 211.7 77.9C211.7 77.9 211.7 78.2 211.7 78.8C211.7 79.4 211.7 80.1 211.8 81.1C211.8 81.6 211.9 82.1 212 82.6C212.1 83.1 212.1 83.7 212.3 84.3C212.4 84.9 212.6 85.5 212.8 86.1C212.8 86.6 213 87.2 213.3 87.9ZM228.8 90C228.4 90.7 227.9 91.3 227.4 91.9C226.9 92.5 226.4 93 225.9 93.5C224.9 94.4 223.9 95.2 223 95.7C222.1 96.2 221.3 96.6 220.7 96.8C220.1 97 219.8 97.1 219.8 97.1C219.8 97.1 219.8 96.7 220 96.1C220.1 95.8 220.1 95.4 220.3 95C220.4 94.8 220.4 94.6 220.5 94.3C220.6 94.1 220.6 93.8 220.7 93.5C220.8 93 221 92.4 221.2 91.8C221.4 91.2 221.7 90.6 221.9 90C222.1 89.4 222.4 88.7 222.7 88.1C222.9 87.8 223 87.4 223.2 87.1C223.4 86.8 223.6 86.4 223.8 86.1C224.2 85.4 224.6 84.8 225 84.2C225.4 83.6 225.9 83 226.3 82.5C227.2 81.4 228.1 80.5 228.9 79.8C229.3 79.4 229.7 79.1 230 78.8C230.3 78.5 230.6 78.3 230.9 78C231.4 77.6 231.7 77.4 231.7 77.4C231.7 77.4 231.7 77.8 231.8 78.5C231.8 79.2 231.8 80.3 231.6 81.5C231.5 82.1 231.5 82.8 231.3 83.4C231.2 84.1 231 84.8 230.8 85.5C230.6 86.2 230.3 87 230 87.7C229.6 88.5 229.2 89.3 228.8 90ZM213.6 72.6C214 73.2 214.4 73.7 214.8 74.2C215.2 74.7 215.7 75.2 216.1 75.7C217 76.6 217.8 77.4 218.6 78.1C219 78.4 219.4 78.7 219.7 79C220 79.3 220.3 79.5 220.6 79.7C221.1 80.1 221.4 80.2 221.4 80.2C221.4 80.2 221.4 79.8 221.5 79.2C221.5 78.6 221.5 77.7 221.3 76.6C221.2 76.1 221.2 75.5 221 74.9C220.9 74.3 220.7 73.7 220.5 73C220.3 72.4 220 71.7 219.7 71.1C219.4 70.5 219 69.8 218.6 69.2C218.2 68.6 217.8 68 217.3 67.5C216.8 67 216.3 66.6 215.8 66.2C214.8 65.4 213.9 64.8 212.9 64.3C212 63.9 211.2 63.6 210.7 63.4C210.1 63.2 209.8 63.1 209.8 63.1C209.8 63.1 209.8 63.4 209.9 64C210 64.3 210 64.6 210.1 65C210.2 65.2 210.2 65.4 210.3 65.6C210.4 65.8 210.4 66 210.5 66.2C210.6 66.6 210.8 67.1 211 67.6C211.2 68.1 211.4 68.6 211.6 69.2C211.8 69.7 212.1 70.3 212.4 70.9C212.6 71.2 212.7 71.5 212.9 71.8C213.2 72 213.4 72.3 213.6 72.6ZM229.2 71.1C228.9 71.9 228.6 72.6 228.3 73.3C228 74 227.6 74.6 227.2 75.2C226.4 76.4 225.5 77.3 224.8 78C224.4 78.4 224.1 78.7 223.7 79C223.4 79.3 223.1 79.5 222.8 79.7C222.3 80.1 222 80.2 222 80.2C222 80.2 222 79.8 222 79.2C222 78.6 222 77.7 222.1 76.6C222.1 76.1 222.2 75.5 222.3 74.9C222.4 74.3 222.4 73.6 222.6 73C222.7 72.3 222.9 71.6 223.1 70.9C223.3 70.2 223.5 69.5 223.7 68.7C223.9 68 224.2 67.2 224.5 66.6C224.8 65.9 225.1 65.3 225.4 64.6C226 63.4 226.8 62.2 227.3 61.3C227.9 60.4 228.5 59.6 228.9 59.1C229.3 58.6 229.6 58.3 229.6 58.3C229.6 58.3 229.7 58.7 229.9 59.4C230 59.8 230.1 60.2 230.2 60.7C230.2 60.9 230.3 61.2 230.3 61.5C230.3 61.8 230.4 62.1 230.4 62.4C230.5 63 230.5 63.7 230.5 64.4C230.5 65.1 230.5 65.8 230.4 66.6C230.3 67.4 230.2 68.1 230.1 68.9C230 69.3 229.9 69.7 229.8 70.1C229.4 70.3 229.3 70.7 229.2 71.1ZM210.7 57.7C211 57.9 211.2 58.2 211.5 58.4C211.8 58.6 212 58.8 212.3 59C212.8 59.4 213.3 59.8 213.9 60.1C215 60.8 216 61.4 216.9 61.8C217.8 62.3 218.6 62.6 219.2 62.9C219.8 63.1 220.1 63.2 220.1 63.2C220.1 63.2 219.9 61.7 219.3 59.7C218.9 58.7 218.4 57.6 217.8 56.4C217.1 55.3 216.2 54.1 215.2 53.1C214.1 52.1 213 51.4 211.8 50.8C210.6 50.3 209.5 49.9 208.6 49.7C207.6 49.5 206.8 49.4 206.2 49.3C205.6 49.3 205.3 49.3 205.3 49.3C205.3 49.3 205.4 49.6 205.6 50.1C205.8 50.6 206.1 51.3 206.6 52.1C207.1 52.9 207.6 53.8 208.3 54.8C208.5 55 208.7 55.3 208.9 55.5C209.1 55.7 209.3 56 209.5 56.2C209.7 56.8 210.2 57.3 210.7 57.7ZM225.6 52.7C225.6 53.1 225.5 53.5 225.4 53.9C225.3 54.3 225.2 54.7 225.1 55.1C224.9 55.8 224.7 56.5 224.4 57.2C223.9 58.5 223.2 59.6 222.6 60.5C222 61.4 221.4 62.1 221 62.6C220.6 63.1 220.3 63.3 220.3 63.3C220.3 63.3 219.9 61.9 219.6 59.7C219.4 58.6 219.3 57.4 219.2 56C219.1 54.6 219.1 53.1 219.3 51.6C219.4 50.1 219.8 48.6 220.1 47.2C220.4 45.8 220.9 44.6 221.3 43.6C221.7 42.6 222.1 41.7 222.4 41.1C222.7 40.5 222.9 40.2 222.9 40.2C222.9 40.2 223.1 40.6 223.4 41.2C223.7 41.9 224.1 42.8 224.5 44C224.9 45.1 225.2 46.6 225.4 48.1C225.5 48.5 225.5 48.9 225.5 49.2C225.5 49.6 225.5 50 225.5 50.4C225.7 51 225.7 51.8 225.6 52.7ZM204.7 43.9C205.3 44.2 205.9 44.6 206.5 44.8C207.1 45.1 207.7 45.3 208.3 45.5C209.5 45.9 210.6 46.3 211.6 46.5C212.1 46.6 212.6 46.7 213 46.8C213.4 46.9 213.8 47 214.1 47C214.7 47.1 215 47.1 215 47.1C215 47.1 214.9 46.8 214.6 46.2C214.4 45.6 213.9 44.8 213.4 43.9C213.1 43.4 212.8 43 212.5 42.5C212.1 42 211.7 41.5 211.3 41.1C210.8 40.6 210.4 40.1 209.8 39.7C209.2 39.3 208.7 38.9 208 38.5C207.7 38.3 207.4 38.2 207.1 38C206.9 37.9 206.8 37.9 206.6 37.8C206.4 37.7 206.3 37.7 206.1 37.6C205.5 37.4 204.8 37.2 204.2 37C203.6 36.9 203 36.8 202.4 36.7C201.8 36.6 201.3 36.6 200.8 36.6C199.8 36.6 199 36.7 198.4 36.8C197.8 36.9 197.5 37 197.5 37C197.5 37 197.7 37.3 198 37.7C198.2 37.9 198.4 38.2 198.6 38.5C198.8 38.8 199.1 39.1 199.4 39.5C200 40.2 200.8 41 201.6 41.7C202 42.1 202.5 42.5 203 42.8C203.6 43.2 204.2 43.5 204.7 43.9ZM218.2 35.5C218.3 36.3 218.3 37.1 218.2 37.9C218.2 38.7 218.1 39.4 218 40.1C217.7 41.5 217.4 42.7 217 43.7C216.9 44 216.8 44.2 216.7 44.4C216.6 44.6 216.5 44.8 216.4 45C216.2 45.4 216 45.7 215.9 46C215.6 46.6 215.4 46.9 215.4 46.9C215.4 46.9 215.2 46.6 215 46C214.8 45.4 214.4 44.6 214 43.6C213.8 43.1 213.6 42.5 213.4 41.9C213.2 41.3 213 40.7 212.8 40C212.6 39.3 212.5 38.6 212.3 37.9C212.2 37.2 212 36.4 212 35.6C212 35.2 211.9 34.8 211.9 34.4C211.9 34 211.9 33.6 211.9 33.3C211.9 32.6 211.9 31.8 211.9 31.1C211.9 30.4 212 29.7 212.1 29.1C212.2 28.5 212.2 27.9 212.3 27.3C212.5 26.2 212.7 25.3 212.8 24.6C213 24 213.1 23.6 213.1 23.6C213.1 23.6 213.4 23.9 213.8 24.5C214 24.8 214.3 25.1 214.6 25.5C214.9 25.9 215.2 26.4 215.5 26.9C216.1 28 216.7 29.2 217.3 30.6C217.5 31.3 217.8 32.1 218 32.9C217.9 33.8 218.1 34.6 218.2 35.5ZM196 31.7C196.6 31.9 197.3 32 197.9 32.2C198.5 32.3 199.2 32.4 199.8 32.5C200.4 32.6 201 32.6 201.6 32.7C202.2 32.7 202.7 32.8 203.2 32.8C204.2 32.8 205.1 32.8 205.7 32.7C206.3 32.7 206.7 32.6 206.7 32.6C206.7 32.6 206.5 32.3 206.1 31.8C205.9 31.5 205.7 31.2 205.4 30.9C205.1 30.6 204.8 30.2 204.4 29.8C204 29.4 203.6 29 203.2 28.7C203 28.5 202.7 28.3 202.5 28.1C202.4 28 202.3 27.9 202.1 27.8C202 27.7 201.8 27.6 201.7 27.5C201.2 27.1 200.6 26.8 200 26.5C199.7 26.3 199.4 26.2 199.1 26.1C198.8 26 198.4 25.9 198.1 25.8C197.4 25.6 196.7 25.5 196.1 25.4C195.8 25.4 195.4 25.3 195.1 25.3C194.8 25.3 194.5 25.3 194.1 25.3C192.8 25.3 191.7 25.5 190.7 25.7C189.7 25.9 188.9 26.2 188.4 26.4C187.9 26.6 187.5 26.8 187.5 26.8C187.5 26.8 187.7 27 188.1 27.4C188.5 27.7 189.1 28.2 189.8 28.8C190.2 29.1 190.6 29.3 191 29.6C191.4 29.9 191.9 30.2 192.4 30.4C192.9 30.7 193.5 30.9 194 31.2C194.7 31.3 195.3 31.5 196 31.7ZM207.3 20.4C207.5 21.2 207.7 21.9 207.9 22.7C208 23.5 208.1 24.2 208.1 24.9C208.1 25.6 208.1 26.3 208.1 26.9C208.1 27.5 208 28.1 207.9 28.7C207.7 29.8 207.5 30.7 207.3 31.3C207.1 31.9 207 32.2 207 32.2C207 32.2 206.8 31.9 206.4 31.4C206.2 31.2 206 30.8 205.7 30.5C205.5 30.1 205.2 29.7 204.9 29.3C204.6 28.9 204.3 28.4 204 27.8C203.8 27.5 203.7 27.3 203.5 27C203.4 26.9 203.3 26.7 203.3 26.6C203.2 26.5 203.1 26.3 203.1 26.2C202.8 25.6 202.5 25 202.2 24.3C202.1 24 201.9 23.6 201.8 23.2C201.7 22.8 201.5 22.5 201.4 22.1C201.2 21.4 201 20.6 200.8 19.9C200.7 19.5 200.6 19.2 200.6 18.8C200.5 18.4 200.5 18.1 200.4 17.8C200.2 16.4 200 15.1 200 14C199.9 12.9 199.9 11.9 199.9 11.3C199.9 10.6 199.9 10.3 199.9 10.3C199.9 10.3 200.2 10.5 200.8 11C201.4 11.4 202.1 12.1 202.9 13C203.3 13.4 203.7 13.9 204.2 14.5C204.6 15 205 15.6 205.4 16.3C205.8 16.9 206.2 17.6 206.5 18.3C206.8 18.9 207.1 19.7 207.3 20.4ZM184.9 21.9C186.2 22 187.5 22 188.8 21.8C190 21.7 191.2 21.5 192.2 21.2C193.2 21 194 20.7 194.6 20.6C195.2 20.4 195.5 20.3 195.5 20.3C195.5 20.3 195.4 20.2 195.3 20.1C195.2 20 195 19.8 194.8 19.6C194.3 19.2 193.6 18.7 192.8 18.1C191.1 17 188.5 15.8 185.7 15.6C185 15.5 184.3 15.6 183.6 15.7C182.9 15.8 182.3 15.9 181.7 16C181.4 16.1 181.1 16.1 180.8 16.2C180.5 16.3 180.2 16.4 180 16.5C179.5 16.7 179 16.9 178.5 17.1C177.6 17.5 176.9 18 176.4 18.3C176.2 18.5 176 18.6 175.8 18.7C175.7 18.8 175.6 18.9 175.6 18.9C175.6 18.9 175.9 19.1 176.3 19.3C176.8 19.6 177.4 19.9 178.3 20.2C178.7 20.4 179.2 20.6 179.7 20.7C180.2 20.9 180.7 21 181.3 21.2C181.4 21.2 181.6 21.3 181.7 21.3C181.8 21.3 182 21.4 182.1 21.4C182.4 21.5 182.7 21.5 183 21.6C183.6 21.8 184.2 21.8 184.9 21.9ZM193.6 8.19999C194.4 9.59999 194.9 11.1 195.3 12.5C195.6 13.9 195.8 15.2 195.9 16.3C196 17.4 195.9 18.3 195.9 18.9C195.8 19.5 195.8 19.9 195.8 19.9C195.8 19.9 195.7 19.8 195.6 19.7C195.5 19.6 195.3 19.4 195 19.2C194.5 18.8 193.8 18.2 193.1 17.5C191.6 16 189.7 13.9 188.1 11.2C187.7 10.5 187.4 9.89999 187 9.19999C186.7 8.49999 186.4 7.89999 186.1 7.19999C186 6.89999 185.9 6.49999 185.7 6.19999C185.6 5.89999 185.5 5.59999 185.4 5.29999C185.2 4.69999 185 4.09999 184.9 3.59999C184.6 2.49999 184.4 1.59999 184.3 0.899988C184.2 0.599988 184.2 0.299988 184.2 0.0999878C184.2 -0.100012 184.2 -0.200012 184.2 -0.200012C184.2 -0.200012 184.3 -0.200012 184.5 -0.100012C184.7 -1.22041e-05 184.9 0.0999878 185.2 0.299988C185.8 0.599988 186.7 1.09999 187.7 1.79999C188.2 2.09999 188.7 2.49999 189.2 2.99999C189.7 3.39999 190.3 3.89999 190.8 4.39999C190.9 4.49999 191.1 4.69999 191.2 4.79999C191.3 4.89999 191.5 5.09999 191.6 5.19999C191.8 5.49999 192.1 5.79999 192.3 6.09999C192.8 6.89999 193.2 7.49999 193.6 8.19999ZM176.9 2.49999C177.6 2.89999 178.2 3.39999 178.8 3.79999C179.1 3.99999 179.4 4.29999 179.6 4.49999C179.9 4.79999 180.1 4.99999 180.3 5.29999C181.2 6.29999 182 7.29999 182.6 8.29999C183.2 9.19999 183.5 10.1 183.8 10.6C184 11.2 184.2 11.5 184.2 11.5C184.2 11.5 183.8 11.5 183.2 11.4C182.9 11.3 182.5 11.3 182.1 11.2C181.7 11.1 181.2 11 180.7 10.9C179.7 10.7 178.5 10.3 177.3 9.79999C176.7 9.59999 176 9.29999 175.4 8.99999C175.2 8.89999 175.1 8.79999 174.9 8.79999C174.7 8.69999 174.6 8.59999 174.4 8.59999C174.1 8.39999 173.7 8.29999 173.4 8.09999C172.7 7.69999 172.1 7.29999 171.5 6.89999C170.9 6.49999 170.3 6.09999 169.8 5.59999C168.7 4.69999 167.8 3.79999 167 2.99999C166.2 2.19999 165.6 1.49999 165.2 0.999988C164.8 0.499988 164.6 0.199988 164.6 0.199988C164.6 0.199988 165 0.0999878 165.7 0.0999878C166 0.0999878 166.5 -1.22041e-05 166.9 -1.22041e-05C167.4 -1.22041e-05 167.9 -1.21891e-05 168.5 0.0999878C169.1 0.0999878 169.7 0.199988 170.4 0.299988C170.7 0.399988 171.1 0.399988 171.4 0.499988C171.7 0.599988 172.1 0.699988 172.4 0.799988C174 1.09999 175.5 1.59999 176.9 2.49999ZM155.5 147.2C153.3 148.8 151.6 151 150.4 152.6C149.8 153.4 149.3 154.2 149 154.7C148.7 155.2 148.5 155.6 148.5 155.6C148.5 155.6 149.9 155.7 151.9 155.4C152.9 155.2 154.1 154.9 155.3 154.5C155.9 154.3 156.5 154 157.1 153.6C157.7 153.3 158.3 152.9 158.9 152.4C159.2 152.2 159.5 152 159.7 151.7C160 151.5 160.2 151.2 160.4 151C160.9 150.5 161.3 150 161.7 149.5C161.9 149.2 162.1 149 162.2 148.7C162.4 148.4 162.5 148.2 162.7 147.9C163 147.4 163.2 146.9 163.4 146.4C163.8 145.5 164.1 144.6 164.2 144.1C164.4 143.5 164.4 143.2 164.4 143.2C164.4 143.2 164.3 143.2 164.2 143.2C164.1 143.2 163.9 143.3 163.6 143.3C163.1 143.4 162.4 143.6 161.5 143.9C161.1 144.1 160.6 144.2 160.1 144.4C159.6 144.6 159.1 144.8 158.6 145.1C158.1 145.4 157.6 145.6 157 146C156.6 146.4 156.1 146.8 155.5 147.2Z" fill="#E8BA53"/>
<path d="M74.6 163.5C77.6 162.4 79.8 160.5 81.3 158.9C82 158.1 82.5 157.4 82.9 156.9C83.2 156.4 83.4 156.1 83.4 156.1C83.4 156.1 82 155.9 79.9 156.1C78.9 156.2 77.7 156.2 76.4 156.5C75.8 156.6 75.1 156.7 74.4 156.9C73.7 157.1 73 157.3 72.3 157.5C71.9 157.6 71.6 157.8 71.3 157.9C71 158 70.6 158.2 70.3 158.3C69.6 158.6 69 158.9 68.4 159.3C68.1 159.5 67.8 159.6 67.5 159.8C67.2 160 66.9 160.1 66.7 160.3C66.2 160.6 65.7 161 65.2 161.3C64.3 161.9 63.6 162.5 63.1 162.9C62.6 163.3 62.3 163.6 62.3 163.6C62.3 163.6 62.4 163.6 62.6 163.7C62.8 163.8 63 163.8 63.4 163.9C64.1 164.1 65 164.3 66.2 164.5C66.8 164.6 67.4 164.6 68.1 164.6C68.8 164.6 69.5 164.6 70.2 164.6C70.9 164.6 71.7 164.4 72.4 164.3C73.1 164 73.9 163.8 74.6 163.5ZM62.1 143.9C62.5 144.4 62.9 145 63.3 145.6C63.7 146.2 64 146.7 64.4 147.3C65 148.4 65.6 149.5 66 150.5C66.4 151.4 66.8 152.3 67 152.9C67.2 153.5 67.3 153.8 67.3 153.8C67.3 153.8 67 153.8 66.4 153.6C66.1 153.5 65.7 153.4 65.3 153.3C64.9 153.2 64.5 153 64 152.8C63.5 152.6 63 152.4 62.5 152.1C62.2 152 62 151.8 61.7 151.7C61.4 151.5 61.2 151.4 60.9 151.2C59.8 150.5 58.7 149.6 57.8 148.4C57.3 147.8 56.9 147.2 56.6 146.7C56.4 146.4 56.3 146.1 56.1 145.8C56 145.5 55.8 145.2 55.7 144.9C55.2 143.7 54.9 142.5 54.7 141.5C54.5 140.5 54.4 139.6 54.4 139C54.4 138.4 54.4 138 54.4 138C54.4 138 54.7 138.1 55.2 138.4C55.4 138.5 55.7 138.7 56 138.9C56.3 139.1 56.7 139.3 57.1 139.5C57.9 140 58.7 140.6 59.6 141.3C60 141.7 60.5 142.1 60.9 142.5L61.2 142.9L61.5 143.2C61.7 143.4 61.9 143.6 62.1 143.9ZM57.1 159.4C57.9 159.3 58.6 159.2 59.3 159C60 158.8 60.7 158.5 61.3 158.3C62.6 157.8 63.6 157.1 64.5 156.5C65.4 155.9 66 155.3 66.5 154.8C67 154.4 67.2 154.1 67.2 154.1C67.2 154.1 66.9 154 66.3 153.8C66 153.7 65.6 153.6 65.2 153.6C64.8 153.5 64.3 153.4 63.8 153.3C63.3 153.2 62.7 153.1 62.1 153C61.8 153 61.5 152.9 61.2 152.9C60.9 152.9 60.6 152.8 60.2 152.8C58.9 152.7 57.5 152.7 56 152.9C55.3 153 54.5 153.1 53.8 153.2C53.4 153.3 53.1 153.4 52.8 153.4C52.5 153.5 52.1 153.6 51.8 153.6C50.5 153.9 49.3 154.4 48.3 154.8C47.3 155.2 46.5 155.6 45.9 155.9C45.3 156.2 45 156.4 45 156.4C45 156.4 45.3 156.6 46 157C46.3 157.2 46.7 157.4 47.1 157.6C47.5 157.8 48 158 48.6 158.2C49.7 158.6 51 159 52.4 159.2C53.1 159.3 53.9 159.4 54.6 159.4C54.8 159.4 55 159.4 55.2 159.4C55.4 159.4 55.6 159.4 55.8 159.4C56.3 159.5 56.7 159.5 57.1 159.4ZM49 137.4C49.3 138 49.6 138.6 49.8 139.3C50.1 139.9 50.3 140.6 50.5 141.2C50.6 141.5 50.7 141.8 50.8 142.1C50.9 142.4 51 142.7 51 143C51.2 143.6 51.3 144.1 51.4 144.7C51.6 145.7 51.8 146.6 51.8 147.3C51.8 147.6 51.9 147.9 51.9 148C51.9 148.2 51.9 148.3 51.9 148.3C51.9 148.3 51.8 148.3 51.7 148.2C51.5 148.1 51.3 148 51.1 147.9C50.6 147.6 49.8 147.2 48.9 146.6C48.5 146.3 48 145.9 47.6 145.6C47.1 145.2 46.7 144.8 46.2 144.3C46.1 144.2 46 144.1 45.9 143.9C45.8 143.8 45.7 143.6 45.6 143.5C45.4 143.2 45.2 143 45 142.7C44.6 142.1 44.2 141.5 43.9 140.9C43.2 139.6 42.8 138.2 42.6 136.9C42.4 135.6 42.3 134.4 42.3 133.4C42.3 132.4 42.4 131.5 42.5 130.9C42.6 130.3 42.7 129.9 42.7 129.9C42.7 129.9 42.8 129.9 42.9 130C43 130.1 43.2 130.2 43.4 130.4C43.8 130.7 44.4 131.2 45 131.9C46.2 133.1 47.8 134.9 49 137.4ZM40.8 151.4C41.6 151.5 42.4 151.5 43.1 151.5C43.8 151.5 44.5 151.4 45.2 151.3C45.5 151.2 45.9 151.2 46.2 151.1C46.5 151 46.8 150.9 47.1 150.8C47.7 150.6 48.2 150.4 48.7 150.2C49.7 149.8 50.4 149.4 51 149.1C51.3 148.9 51.5 148.8 51.6 148.7C51.7 148.6 51.8 148.6 51.8 148.6C51.8 148.6 51.5 148.4 51 148.1C50.5 147.8 49.7 147.4 48.7 147C48.2 146.8 47.7 146.6 47.1 146.4C46.5 146.2 45.9 146 45.3 145.8C45.1 145.8 45 145.7 44.8 145.7C44.6 145.7 44.5 145.6 44.3 145.6C44 145.5 43.6 145.4 43.3 145.3C42.6 145.1 41.9 145 41.1 144.9C39.6 144.7 38.2 144.6 36.8 144.7C35.5 144.7 34.2 144.9 33.2 145C32.1 145.2 31.2 145.4 30.6 145.5C30 145.6 29.6 145.8 29.6 145.8C29.6 145.8 29.7 145.9 29.8 146C29.9 146.1 30.1 146.3 30.4 146.6C30.9 147.1 31.7 147.7 32.7 148.3C32.9 148.5 33.2 148.6 33.5 148.8C33.8 149 34.1 149.1 34.4 149.3C35 149.6 35.6 149.9 36.3 150.2C36.6 150.3 37 150.5 37.3 150.6C37.7 150.7 38 150.8 38.4 150.9C39.3 151.1 40 151.3 40.8 151.4ZM37.6 128C37.8 128.7 37.9 129.3 38 130C38.1 130.3 38.1 130.7 38.1 131C38.1 131.3 38.2 131.7 38.2 132C38.3 133.3 38.4 134.5 38.3 135.6C38.3 136.7 38.3 137.5 38.2 138.2C38.2 138.8 38.1 139.2 38.1 139.2C38.1 139.2 37.8 139 37.3 138.6C36.8 138.2 36.2 137.6 35.5 136.8C35.1 136.4 34.8 136 34.4 135.5C34 135 33.7 134.5 33.4 133.9C33.1 133.3 32.7 132.7 32.5 132.1C32.2 131.4 32 130.7 31.8 130C31.6 129.3 31.5 128.6 31.4 127.9C31.3 127.2 31.3 126.5 31.3 125.9C31.3 125.2 31.4 124.6 31.4 124C31.5 123.4 31.6 122.9 31.7 122.3C31.9 121.3 32.2 120.5 32.4 119.9C32.6 119.3 32.8 119 32.8 119C32.8 119 33 119.2 33.3 119.7C33.5 119.9 33.7 120.2 33.9 120.5C34.1 120.8 34.3 121.2 34.6 121.6C34.9 122 35.1 122.4 35.4 122.9C35.5 123.1 35.7 123.4 35.8 123.6C35.9 123.7 35.9 123.9 36 124C36.1 124.1 36.1 124.3 36.2 124.4C36.5 124.9 36.7 125.5 36.9 126.1C37 126.4 37.1 126.7 37.2 127.1C37.4 127.4 37.5 127.7 37.6 128ZM26.7 139.7C27.5 140 28.2 140.2 28.9 140.3C29.3 140.4 29.6 140.4 30 140.5C30.4 140.5 30.7 140.6 31 140.6C32.4 140.7 33.6 140.6 34.6 140.4C35.6 140.2 36.5 140 37.1 139.8C37.7 139.6 38 139.5 38 139.5C38 139.5 37.7 139.2 37.3 138.8C36.8 138.4 36.2 137.8 35.3 137.2C34.9 136.9 34.4 136.6 33.9 136.2C33.4 135.9 32.9 135.5 32.3 135.2C31.7 134.9 31.1 134.5 30.5 134.2C29.9 133.9 29.2 133.6 28.5 133.3C27.8 133 27.1 132.8 26.4 132.6C25.7 132.4 25 132.2 24.4 132.1C23.7 132 23.1 131.9 22.5 131.8C21.9 131.7 21.3 131.7 20.8 131.6C19.7 131.5 18.8 131.5 18.2 131.5C17.6 131.5 17.2 131.5 17.2 131.5C17.2 131.5 17.4 131.9 17.8 132.4C18 132.7 18.3 133 18.6 133.4C18.9 133.8 19.3 134.2 19.7 134.6C20.1 135 20.6 135.5 21.1 135.9C21.4 136.1 21.6 136.4 21.9 136.6C22 136.7 22.2 136.8 22.3 136.9C22.4 137 22.6 137.1 22.7 137.2C23.3 137.6 24 138 24.6 138.4C24.9 138.6 25.3 138.8 25.6 138.9C25.9 139.5 26.3 139.6 26.7 139.7ZM28.4 116.2C28.4 116.6 28.4 116.9 28.4 117.3C28.4 117.7 28.4 118 28.4 118.3C28.4 119 28.3 119.6 28.2 120.3C28.1 120.9 28 121.6 27.9 122.2C27.8 122.8 27.7 123.3 27.6 123.9C27.4 124.9 27.1 125.8 27 126.4C26.8 127 26.7 127.4 26.7 127.4C26.7 127.4 26.5 127.1 26.1 126.6C25.9 126.4 25.7 126 25.4 125.7C25.2 125.3 24.9 124.9 24.6 124.5C24.1 123.6 23.5 122.4 23.1 121.2C22.9 120.6 22.7 119.9 22.6 119.2C22.5 118.5 22.4 117.8 22.3 117C22.3 116.2 22.3 115.5 22.4 114.8C22.5 114.1 22.6 113.4 22.7 112.8C23 111.5 23.4 110.4 23.9 109.5C24 109.3 24.1 109 24.2 108.8C24.3 108.6 24.4 108.4 24.5 108.2C24.7 107.8 24.9 107.5 25.1 107.3C25.4 106.8 25.7 106.5 25.7 106.5C25.7 106.5 25.9 106.8 26.1 107.3C26.3 107.8 26.7 108.5 27 109.4C27.2 109.8 27.3 110.3 27.5 110.8C27.7 111.3 27.8 111.9 27.9 112.4C28 113 28.1 113.6 28.2 114.3C28.3 114.8 28.4 115.5 28.4 116.2ZM15.3 125.2C15.6 125.4 16 125.6 16.3 125.8C16.5 125.9 16.6 126 16.8 126.1C17 126.2 17.1 126.3 17.3 126.3C18 126.6 18.7 126.8 19.3 127C19.9 127.2 20.6 127.3 21.2 127.5C21.8 127.6 22.4 127.7 22.9 127.7C24 127.8 24.8 127.7 25.4 127.7C26 127.7 26.4 127.6 26.4 127.6C26.4 127.6 26.2 127.3 25.8 126.8C25.6 126.5 25.4 126.2 25.1 125.9C24.8 125.6 24.5 125.2 24.2 124.8C23.5 124 22.7 123.1 21.7 122.2C21.2 121.7 20.7 121.3 20.1 120.8C19.5 120.4 18.9 119.9 18.3 119.5C17.7 119.1 17 118.7 16.4 118.3C15.8 118 15.1 117.7 14.5 117.4C13.3 116.8 12.1 116.4 11.1 116.1C10.8 116 10.6 115.9 10.4 115.9C10.2 115.8 9.9 115.8 9.7 115.7C9.3 115.6 8.9 115.5 8.6 115.4C8 115.3 7.6 115.2 7.6 115.2C7.6 115.2 7.7 115.6 8 116.3C8.3 117 8.7 117.9 9.4 118.9C9.7 119.4 10.1 120 10.5 120.5C10.9 121 11.4 121.6 11.9 122.2C12.4 122.8 12.9 123.3 13.5 123.8C14 124.2 14.6 124.7 15.3 125.2ZM21.9 102.6C21.7 104 21.3 105.3 20.9 106.5C20.5 107.7 20 108.8 19.6 109.8C19.2 110.8 18.7 111.6 18.4 112.1C18.1 112.6 17.9 113 17.9 113C17.9 113 17.7 112.7 17.4 112.1C17.1 111.5 16.8 110.7 16.5 109.7C16.1 108.7 15.9 107.4 15.8 106.1C15.8 105.8 15.7 105.4 15.7 105.1C15.7 104.8 15.7 104.4 15.7 104C15.7 103.3 15.8 102.6 15.9 101.8C16 101.4 16 101.1 16.1 100.7C16.2 100.3 16.3 100 16.4 99.7C16.6 99 16.9 98.4 17.2 97.8C17.7 96.6 18.4 95.6 19.1 94.8C19.7 94 20.3 93.4 20.7 93C21.1 92.6 21.4 92.4 21.4 92.4C21.4 92.4 21.8 93.6 22 95.5C22.1 96.4 22.2 97.5 22.2 98.7C22.3 99.9 22.2 101.2 21.9 102.6ZM7.2 108.3C8.4 109.5 9.6 110.4 10.7 111.1C11.9 111.8 13.1 112.2 14.1 112.6C15.1 112.9 15.9 113.1 16.6 113.2C17.2 113.3 17.6 113.3 17.6 113.3C17.6 113.3 17.5 113 17.2 112.4C17 111.8 16.6 111 16.1 110.1C15.6 109.2 15 108.1 14.2 107C14 106.7 13.8 106.4 13.6 106.2C13.4 105.9 13.2 105.6 13 105.3C12.6 104.7 12.1 104.2 11.5 103.6C11.2 103.3 11 103.1 10.7 102.8C10.4 102.5 10.2 102.3 9.9 102C9.4 101.5 8.8 101.1 8.3 100.6C7 99.7 6 99 5.1 98.4C4.2 97.8 3.4 97.4 2.8 97.1C2.2 96.8 1.9 96.7 1.9 96.7C1.9 96.7 2.1 98.4 2.8 100.7C3.2 101.9 3.8 103.2 4.5 104.5C5.2 105.8 6.1 107.1 7.2 108.3ZM18.5 87.9C18.2 88.5 17.9 89.2 17.6 89.8C17.3 90.4 17 91 16.7 91.5C16 92.6 15.3 93.6 14.7 94.4C14.1 95.2 13.5 95.9 13.1 96.4C12.7 96.9 12.4 97.1 12.4 97.1C12.4 97.1 12.3 96.8 12.1 96.1C12 95.8 11.9 95.4 11.9 95C11.9 94.8 11.8 94.6 11.8 94.3C11.8 94.1 11.8 93.8 11.7 93.5C11.7 93 11.6 92.4 11.6 91.8C11.6 91.2 11.6 90.5 11.7 89.9C11.8 89.2 11.9 88.5 12.1 87.9C12.2 87.6 12.3 87.2 12.4 86.9C12.5 86.6 12.6 86.2 12.8 85.9C13.1 85.2 13.4 84.6 13.8 84C14.2 83.4 14.5 82.9 14.9 82.3C15.7 81.3 16.6 80.5 17.3 79.8C17.7 79.5 18 79.2 18.4 79C18.7 78.8 19 78.6 19.3 78.4C19.8 78.1 20.1 77.9 20.1 77.9C20.1 77.9 20.1 78.2 20.1 78.8C20.1 79.4 20.1 80.1 20 81.1C20 81.6 19.9 82.1 19.8 82.6C19.7 83.1 19.7 83.7 19.5 84.3C19.4 84.9 19.2 85.5 19 86.1C19 86.6 18.8 87.2 18.5 87.9ZM3 90C3.4 90.7 3.9 91.3 4.4 91.9C4.9 92.5 5.4 93 5.9 93.5C6.9 94.4 7.9 95.2 8.8 95.7C9.7 96.2 10.5 96.6 11.1 96.8C11.7 97 12 97.1 12 97.1C12 97.1 12 96.7 11.8 96.1C11.7 95.8 11.7 95.4 11.5 95C11.4 94.8 11.4 94.6 11.3 94.3C11.2 94.1 11.2 93.8 11.1 93.5C11 93 10.8 92.4 10.6 91.8C10.4 91.2 10.1 90.6 9.9 90C9.7 89.4 9.4 88.7 9.1 88.1C8.9 87.8 8.8 87.4 8.6 87.1C8.4 86.8 8.2 86.4 8 86.1C7.6 85.4 7.2 84.8 6.8 84.2C6.4 83.6 5.9 83 5.5 82.5C4.6 81.4 3.7 80.5 2.9 79.8C2.5 79.4 2.1 79.1 1.8 78.8C1.5 78.5 1.2 78.3 0.9 78C0.4 77.6 0.1 77.4 0.1 77.4C0.1 77.4 0.1 77.8 0 78.5C0 79.2 0 80.3 0.2 81.5C0.3 82.1 0.4 82.8 0.5 83.4C0.6 84.1 0.8 84.8 1 85.5C1.2 86.2 1.5 87 1.8 87.7C2.2 88.5 2.6 89.3 3 90ZM18.2 72.6C17.8 73.2 17.4 73.7 17 74.2C16.6 74.7 16.1 75.2 15.7 75.7C14.8 76.6 14 77.4 13.2 78.1C12.8 78.4 12.4 78.7 12.1 79C11.8 79.3 11.5 79.5 11.2 79.7C10.7 80.1 10.4 80.2 10.4 80.2C10.4 80.2 10.4 79.8 10.3 79.2C10.3 78.6 10.3 77.7 10.5 76.6C10.6 76.1 10.6 75.5 10.8 74.9C10.9 74.3 11.1 73.7 11.3 73C11.5 72.4 11.8 71.7 12.1 71.1C12.4 70.5 12.8 69.8 13.2 69.2C13.6 68.6 14 68 14.5 67.5C15 67 15.5 66.6 16 66.2C17 65.4 17.9 64.8 18.9 64.3C19.8 63.9 20.6 63.6 21.1 63.4C21.7 63.2 22 63.1 22 63.1C22 63.1 22 63.4 21.9 64C21.8 64.3 21.8 64.6 21.7 65C21.6 65.2 21.6 65.4 21.5 65.6C21.5 65.8 21.4 66 21.3 66.2C21.2 66.6 21 67.1 20.8 67.6C20.6 68.1 20.4 68.6 20.2 69.2C20 69.7 19.7 70.3 19.4 70.9C19.2 71.2 19.1 71.5 18.9 71.8C18.6 72 18.4 72.3 18.2 72.6ZM2.6 71.1C2.9 71.9 3.2 72.6 3.5 73.3C3.8 74 4.2 74.6 4.6 75.2C5.4 76.4 6.3 77.3 7 78C7.4 78.4 7.7 78.7 8.1 79C8.4 79.3 8.7 79.5 9 79.7C9.5 80.1 9.8 80.2 9.8 80.2C9.8 80.2 9.8 79.8 9.8 79.2C9.8 78.6 9.8 77.7 9.7 76.6C9.7 76.1 9.6 75.5 9.5 74.9C9.4 74.3 9.4 73.6 9.2 73C9.1 72.3 8.9 71.6 8.7 70.9C8.5 70.2 8.3 69.5 8.1 68.7C7.9 68 7.6 67.2 7.3 66.6C7 65.9 6.7 65.3 6.4 64.6C5.8 63.4 5 62.2 4.5 61.3C3.9 60.4 3.3 59.6 2.9 59.1C2.5 58.6 2.2 58.3 2.2 58.3C2.2 58.3 2.1 58.7 1.9 59.4C1.8 59.8 1.7 60.2 1.6 60.7C1.6 60.9 1.5 61.2 1.5 61.5C1.5 61.8 1.4 62.1 1.4 62.4C1.3 63 1.3 63.7 1.3 64.4C1.3 65.1 1.3 65.8 1.4 66.6C1.7 67.2 1.8 68 2 68.8C2.1 69.2 2.2 69.6 2.3 70C2.4 70.3 2.5 70.7 2.6 71.1ZM21.1 57.7C20.8 57.9 20.6 58.2 20.3 58.4C20.1 58.6 19.8 58.8 19.5 59C19 59.4 18.5 59.8 17.9 60.1C16.8 60.8 15.8 61.4 14.9 61.8C14 62.3 13.2 62.6 12.6 62.9C12 63.1 11.7 63.2 11.7 63.2C11.7 63.2 11.9 61.7 12.5 59.7C12.9 58.7 13.4 57.6 14 56.4C14.7 55.3 15.6 54.1 16.6 53.1C17.7 52.1 18.8 51.4 20 50.8C21.2 50.3 22.3 49.9 23.2 49.7C24.2 49.5 25 49.4 25.6 49.3C26.2 49.3 26.5 49.3 26.5 49.3C26.5 49.3 26.4 49.6 26.2 50.1C26 50.6 25.7 51.3 25.2 52.1C24.7 52.9 24.2 53.8 23.5 54.8C23.3 55 23.1 55.3 22.9 55.5C22.7 55.7 22.5 56 22.3 56.2C22.1 56.8 21.6 57.3 21.1 57.7ZM6.2 52.7C6.2 53.1 6.3 53.5 6.4 53.9C6.5 54.3 6.6 54.7 6.7 55.1C6.9 55.8 7.1 56.5 7.4 57.2C7.9 58.5 8.6 59.6 9.2 60.5C9.8 61.4 10.4 62.1 10.8 62.6C11.2 63.1 11.5 63.3 11.5 63.3C11.5 63.3 11.9 61.9 12.2 59.7C12.4 58.6 12.5 57.4 12.6 56C12.7 54.6 12.7 53.1 12.5 51.6C12.4 50.1 12 48.6 11.7 47.2C11.4 45.8 10.9 44.6 10.5 43.6C10.1 42.6 9.7 41.7 9.4 41.1C9.1 40.5 8.9 40.2 8.9 40.2C8.9 40.2 8.7 40.6 8.4 41.2C8.1 41.9 7.7 42.8 7.3 44C6.9 45.1 6.6 46.6 6.4 48.1C6.3 48.5 6.3 48.9 6.3 49.2C6.3 49.6 6.3 50 6.3 50.4C6.1 51 6.1 51.8 6.2 52.7ZM27.1 43.9C26.5 44.2 25.9 44.6 25.3 44.8C24.7 45.1 24.1 45.3 23.5 45.5C22.3 45.9 21.2 46.3 20.2 46.5C19.7 46.6 19.2 46.7 18.8 46.8C18.4 46.9 18 47 17.7 47C17.1 47.1 16.8 47.1 16.8 47.1C16.8 47.1 16.9 46.8 17.2 46.2C17.4 45.6 17.9 44.8 18.4 43.9C18.7 43.4 19 43 19.3 42.5C19.7 42 20.1 41.5 20.5 41.1C21 40.6 21.4 40.1 22 39.7C22.6 39.3 23.1 38.9 23.8 38.5C24.1 38.3 24.4 38.2 24.7 38C24.9 37.9 25 37.9 25.2 37.8C25.4 37.7 25.5 37.7 25.7 37.6C26.3 37.4 27 37.2 27.6 37C28.2 36.9 28.8 36.8 29.4 36.7C30 36.6 30.5 36.6 31 36.6C32 36.6 32.8 36.7 33.4 36.8C34 36.9 34.3 37 34.3 37C34.3 37 34.1 37.3 33.8 37.7C33.6 37.9 33.4 38.2 33.2 38.5C33 38.8 32.7 39.1 32.4 39.5C31.8 40.2 31 41 30.2 41.7C29.8 42.1 29.3 42.5 28.8 42.8C28.2 43.2 27.6 43.5 27.1 43.9ZM13.6 35.5C13.5 36.3 13.5 37.1 13.6 37.9C13.6 38.7 13.7 39.4 13.8 40.1C14.1 41.5 14.4 42.7 14.8 43.7C14.9 44 15 44.2 15.1 44.4C15.2 44.6 15.3 44.8 15.4 45C15.6 45.4 15.8 45.7 15.9 46C16.2 46.6 16.4 46.9 16.4 46.9C16.4 46.9 16.6 46.6 16.8 46C17 45.4 17.4 44.6 17.8 43.6C18 43.1 18.2 42.5 18.4 41.9C18.6 41.3 18.8 40.7 19 40C19.2 39.3 19.3 38.6 19.5 37.9C19.6 37.2 19.8 36.4 19.8 35.6C19.8 35.2 19.9 34.8 19.9 34.4C19.9 34 19.9 33.6 19.9 33.3C19.9 32.6 19.9 31.8 19.9 31.1C19.9 30.4 19.8 29.7 19.7 29.1C19.6 28.5 19.6 27.9 19.5 27.3C19.3 26.2 19.1 25.3 19 24.6C18.8 24 18.7 23.6 18.7 23.6C18.7 23.6 18.4 23.9 18 24.5C17.8 24.8 17.5 25.1 17.2 25.5C16.9 25.9 16.6 26.4 16.3 26.9C15.7 28 15.1 29.2 14.5 30.6C14.3 31.3 14 32.1 13.8 32.9C13.9 33.8 13.7 34.6 13.6 35.5ZM35.8 31.7C35.2 31.9 34.5 32 33.9 32.2C33.3 32.3 32.6 32.4 32 32.5C31.4 32.6 30.8 32.6 30.2 32.7C29.6 32.7 29.1 32.8 28.6 32.8C27.6 32.8 26.7 32.8 26.1 32.7C25.5 32.7 25.1 32.6 25.1 32.6C25.1 32.6 25.3 32.3 25.7 31.8C25.9 31.5 26.1 31.2 26.4 30.9C26.7 30.6 27 30.2 27.4 29.8C27.8 29.4 28.2 29 28.6 28.7C28.8 28.5 29.1 28.3 29.3 28.1C29.4 28 29.5 27.9 29.7 27.8C29.8 27.7 30 27.6 30.1 27.5C30.6 27.1 31.2 26.8 31.8 26.5C32.1 26.3 32.4 26.2 32.7 26.1C33 26 33.4 25.9 33.7 25.8C34.4 25.6 35.1 25.5 35.7 25.4C36 25.4 36.4 25.3 36.7 25.3C37 25.3 37.3 25.3 37.7 25.3C39 25.3 40.1 25.5 41.1 25.7C42.1 25.9 42.9 26.2 43.4 26.4C43.9 26.6 44.3 26.8 44.3 26.8C44.3 26.8 44.1 27 43.7 27.4C43.3 27.7 42.7 28.2 42 28.8C41.6 29.1 41.2 29.3 40.8 29.6C40.4 29.9 39.9 30.2 39.4 30.4C38.9 30.7 38.3 30.9 37.8 31.2C37.1 31.3 36.5 31.5 35.8 31.7ZM24.5 20.4C24.3 21.2 24.1 21.9 23.9 22.7C23.8 23.5 23.7 24.2 23.7 24.9C23.7 25.6 23.7 26.3 23.7 26.9C23.7 27.5 23.8 28.1 23.9 28.7C24.1 29.8 24.3 30.7 24.5 31.3C24.7 31.9 24.8 32.2 24.8 32.2C24.8 32.2 25 31.9 25.4 31.4C25.6 31.2 25.8 30.8 26.1 30.5C26.3 30.1 26.6 29.7 26.9 29.3C27.2 28.9 27.5 28.4 27.8 27.8C28 27.5 28.1 27.3 28.3 27C28.4 26.9 28.4 26.7 28.5 26.6C28.6 26.5 28.7 26.3 28.7 26.2C29 25.6 29.3 25 29.6 24.3C29.7 24 29.9 23.6 30 23.2C30.1 22.8 30.3 22.5 30.4 22.1C30.6 21.4 30.8 20.6 31 19.9C31.1 19.5 31.2 19.2 31.2 18.8C31.3 18.4 31.3 18.1 31.4 17.8C31.6 16.4 31.8 15.1 31.8 14C31.9 12.9 31.9 11.9 31.9 11.3C31.9 10.6 31.9 10.3 31.9 10.3C31.9 10.3 31.6 10.5 31 11C30.4 11.4 29.7 12.1 28.9 13C28.5 13.4 28.1 13.9 27.6 14.5C27.2 15 26.8 15.6 26.4 16.3C26 16.9 25.6 17.6 25.3 18.3C25 18.9 24.7 19.7 24.5 20.4ZM46.9 21.9C45.6 22 44.3 22 43 21.8C41.8 21.7 40.6 21.5 39.6 21.2C38.6 21 37.8 20.7 37.2 20.6C36.6 20.4 36.3 20.3 36.3 20.3C36.3 20.3 36.4 20.2 36.5 20.1C36.6 20 36.8 19.8 37 19.6C37.5 19.2 38.2 18.7 39 18.1C40.7 17 43.3 15.8 46.1 15.6C46.8 15.5 47.5 15.6 48.2 15.7C48.9 15.8 49.5 15.9 50.1 16C50.4 16.1 50.7 16.1 51 16.2C51.3 16.3 51.6 16.4 51.8 16.5C52.3 16.7 52.8 16.9 53.3 17.1C54.2 17.5 54.9 18 55.4 18.3C55.6 18.5 55.8 18.6 56 18.7C56.1 18.8 56.2 18.9 56.2 18.9C56.2 18.9 55.9 19.1 55.5 19.3C55 19.6 54.4 19.9 53.5 20.2C53.1 20.4 52.6 20.6 52.1 20.7C51.6 20.9 51.1 21 50.5 21.2C50.4 21.2 50.2 21.3 50.1 21.3C50 21.3 49.8 21.4 49.7 21.4C49.4 21.5 49.1 21.5 48.8 21.6C48.2 21.8 47.6 21.8 46.9 21.9ZM38.2 8.19999C37.4 9.59999 36.9 11.1 36.5 12.5C36.1 13.9 36 15.2 35.9 16.3C35.8 17.4 35.9 18.3 35.9 18.9C36 19.5 36 19.9 36 19.9C36 19.9 36.1 19.8 36.2 19.7C36.3 19.6 36.5 19.4 36.8 19.2C37.3 18.8 38 18.2 38.7 17.5C40.2 16 42.1 13.9 43.7 11.2C44.1 10.5 44.4 9.89999 44.8 9.19999C45.1 8.49999 45.4 7.89999 45.7 7.19999C45.8 6.89999 45.9 6.49999 46.1 6.19999C46.2 5.89999 46.3 5.59999 46.4 5.29999C46.6 4.69999 46.8 4.09999 46.9 3.59999C47.2 2.49999 47.4 1.59999 47.5 0.899988C47.6 0.599988 47.6 0.299988 47.6 0.0999878C47.6 -0.100012 47.6 -0.200012 47.6 -0.200012C47.6 -0.200012 47.5 -0.200012 47.3 -0.100012C47.1 -1.22041e-05 46.9 0.0999878 46.6 0.299988C46 0.599988 45.1 1.09999 44.1 1.79999C43.6 2.09999 43.1 2.49999 42.6 2.99999C42.1 3.49999 41.6 3.99999 41 4.49999C40.9 4.59999 40.7 4.79999 40.6 4.89999C40.5 4.99999 40.3 5.19999 40.2 5.29999C39.9 5.59999 39.7 5.89999 39.5 6.19999C39 6.89999 38.6 7.49999 38.2 8.19999ZM54.9 2.49999C54.2 2.89999 53.6 3.39999 53 3.79999C52.7 3.99999 52.4 4.29999 52.2 4.49999C51.9 4.79999 51.7 4.99999 51.5 5.29999C50.6 6.29999 49.8 7.29999 49.2 8.29999C48.6 9.19999 48.3 10.1 48 10.6C47.8 11.2 47.6 11.5 47.6 11.5C47.6 11.5 48 11.5 48.6 11.4C48.9 11.3 49.3 11.3 49.7 11.2C50.1 11.1 50.6 11 51.1 10.9C52.1 10.7 53.3 10.3 54.5 9.79999C55.1 9.59999 55.8 9.29999 56.4 8.99999C56.6 8.89999 56.7 8.79999 56.9 8.79999C57.1 8.69999 57.2 8.59999 57.4 8.59999C57.7 8.39999 58.1 8.29999 58.4 8.09999C59.1 7.69999 59.7 7.29999 60.3 6.89999C60.9 6.49999 61.5 6.09999 62 5.59999C63.1 4.69999 64 3.79999 64.8 2.99999C65.6 2.19999 66.2 1.49999 66.6 0.999988C66.8 0.499988 67 0.199988 67 0.199988C67 0.199988 66.6 0.0999878 65.9 0.0999878C65.6 -1.21891e-05 65.2 -1.22041e-05 64.7 -1.22041e-05C64.2 -1.22041e-05 63.7 -1.21891e-05 63.1 0.0999878C62.5 0.0999878 61.9 0.199988 61.2 0.299988C60.9 0.399988 60.5 0.399988 60.2 0.499988C59.9 0.599988 59.5 0.699988 59.2 0.799988C57.8 1.09999 56.3 1.59999 54.9 2.49999ZM76.3 147.2C78.5 148.8 80.2 151 81.4 152.6C82 153.4 82.5 154.2 82.8 154.7C83.1 155.2 83.3 155.6 83.3 155.6C83.3 155.6 81.9 155.7 79.9 155.4C78.9 155.2 77.7 154.9 76.5 154.5C75.9 154.3 75.3 154 74.7 153.6C74.1 153.3 73.5 152.9 72.9 152.4C72.6 152.2 72.3 152 72.1 151.7C71.8 151.5 71.6 151.2 71.4 151C70.9 150.5 70.5 150 70.1 149.5C69.9 149.2 69.7 149 69.6 148.7C69.4 148.4 69.3 148.2 69.1 147.9C68.8 147.4 68.6 146.9 68.4 146.4C68 145.5 67.7 144.6 67.6 144.1C67.4 143.5 67.4 143.2 67.4 143.2C67.4 143.2 67.5 143.2 67.6 143.2C67.7 143.2 67.9 143.3 68.2 143.3C68.7 143.4 69.4 143.6 70.3 143.9C70.7 144.1 71.2 144.2 71.7 144.4C72.2 144.6 72.7 144.8 73.2 145.1C73.7 145.4 74.2 145.6 74.8 146C75.2 146.4 75.7 146.8 76.3 147.2Z" fill="#E8BA53"/>
<path d="M99.7001 20.4L102 3.39999H105.2L104.2 11.3L102 25.6H97.6001L95.9001 14.2L94.3001 25.6H89.9001L87.6001 11.3L86.6001 3.49999H89.8001L92.0001 20.4L94.3001 3.29999H97.5001L99.7001 20.4Z" fill="#0D2025"/>
<path d="M107.2 3.39996H110.4V25.5H107.2V3.39996Z" fill="#0D2025"/>
<path d="M121.6 3.39996V6.49996H118.6V25.5H115.4V6.49996H112.4V3.39996H121.6Z" fill="#0D2025"/>
<path d="M126.6 19V21.2C126.6 22.2 127.1 22.7 128 22.7C128.9 22.7 129.4 22.2 129.4 21.2V20.8C129.4 19.7 128.4 18.5 126.4 17.1C124.4 15.7 123.4 13.9 123.4 11.9V7.69998C123.4 4.59998 124.9 3.09998 128 3.09998C131.1 3.09998 132.6 4.69998 132.6 7.69998V10.7H129.4V7.69998C129.4 6.69998 128.9 6.19998 128 6.19998C127.1 6.19998 126.6 6.69998 126.6 7.69998V11.8C126.6 12.8 127.6 14 129.6 15.4C131.6 16.8 132.6 18.5 132.6 20.5V21.2C132.6 24.3 131.1 25.9 128 25.9C124.9 25.9 123.4 24.3 123.4 21.2V19H126.6Z" fill="#0D2025"/>
<path d="M139.8 8.39996L137.5 25.5H134.3L137.6 3.39996H142L145.3 25.5H142L139.8 8.39996Z" fill="#0D2025"/>
<path d="M88.1001 43.5H92.6001V48.9C92.6001 52 91.1001 53.6 88.0001 53.6C84.9001 53.6 83.4001 52 83.4001 48.9V35.4C83.4001 32.3 84.9001 30.8 88.0001 30.8C91.1001 30.8 92.6001 32.4 92.6001 35.4V38.4H89.4001V35.4C89.4001 34.4 88.9001 33.9 88.0001 33.9C87.1001 33.9 86.6001 34.4 86.6001 35.4V48.9C86.6001 49.9 87.1001 50.4 88.0001 50.4C88.9001 50.4 89.4001 49.9 89.4001 48.9V46.6H88.1001V43.5Z" fill="#0D2025"/>
<path d="M95.3 53.2V31.1H98.5V50.1H103.6V53.2H95.3Z" fill="#0D2025"/>
<path d="M114.5 48.9C114.5 52 113 53.6 109.9 53.6C106.8 53.6 105.3 52 105.3 48.9V35.4C105.3 32.3 106.8 30.8 109.9 30.8C113 30.8 114.5 32.4 114.5 35.4V48.9ZM111.3 35.4C111.3 34.4 110.8 33.9 109.9 33.9C109 33.9 108.5 34.4 108.5 35.4V48.9C108.5 49.9 109 50.4 109.9 50.4C110.8 50.4 111.3 49.9 111.3 48.9V35.4Z" fill="#0D2025"/>
<path d="M117.2 31.1H121.9C124.9 31.1 126.4 32.7 126.4 35.7V36.1C126.4 37.6 125.8 38.6 124.7 39.2C125.9 39.8 126.4 40.8 126.4 42.3V48.6C126.4 51.7 125 53.3 122.1 53.3H117.2V31.1ZM121.4 37.6C121.8 37.6 122.1 37.6 122.3 37.5C122.9 37.3 123.2 36.8 123.2 36.1V35.7C123.2 34.7 122.7 34.2 121.8 34.2H120.4V37.6H121.4ZM121.8 50.1C122.7 50.1 123.2 49.6 123.2 48.6V42.3C123.2 41.6 122.9 41.1 122.3 40.9C122.1 40.8 121.8 40.8 121.4 40.8H120.4V50.1H121.8Z" fill="#0D2025"/>
<path d="M133.4 36.2L131.1 53.2999H128L131.3 31.2H135.7L139 53.2999H135.8L133.4 36.2Z" fill="#0D2025"/>
<path d="M140.8 53.2V31.1H144V50.1H149.1V53.2H140.8Z" fill="#0D2025"/>
<path d="M41 58.8H44.2V81H41V58.8Z" fill="#0D2025"/>
<path d="M47.1001 58.8H50.3001L53.3001 71.6V58.8H56.3001V81H53.1001L50.2001 68.6V81H47.1001V58.8Z" fill="#0D2025"/>
<path d="M59.2002 58.8H62.4002L65.4002 71.6V58.8H68.4002V81H65.2002L62.3002 68.6V81H59.2002V58.8Z" fill="#0D2025"/>
<path d="M80.3001 76.7C80.3001 79.8 78.8001 81.4 75.7001 81.4C72.6001 81.4 71.1001 79.8 71.1001 76.7V63.1C71.1001 60 72.6001 58.5 75.7001 58.5C78.8001 58.5 80.3001 60.1 80.3001 63.1V76.7ZM77.1001 63.1C77.1001 62.1 76.6001 61.6 75.7001 61.6C74.8001 61.6 74.3001 62.1 74.3001 63.1V76.6C74.3001 77.6 74.8001 78.1 75.7001 78.1C76.6001 78.1 77.1001 77.6 77.1001 76.6V63.1Z" fill="#0D2025"/>
<path d="M89.7 81H85.3L83 66.7L82 58.9H85.2L87.4 76L89.7 58.9H93L92 66.8L89.7 81Z" fill="#0D2025"/>
<path d="M99.3001 63.9L97.1001 81H93.9001L97.2001 58.9H101.6L104.9 81H101.7L99.3001 63.9Z" fill="#0D2025"/>
<path d="M114.5 58.8V62H111.5V81H108.3V62H105.3V58.9H114.5V58.8Z" fill="#0D2025"/>
<path d="M116.6 58.8H119.8V81H116.6V58.8Z" fill="#0D2025"/>
<path d="M131.7 76.7C131.7 79.8 130.2 81.4 127.1 81.4C124 81.4 122.5 79.8 122.5 76.7V63.1C122.5 60 124 58.5 127.1 58.5C130.2 58.5 131.7 60.1 131.7 63.1V76.7ZM128.5 63.1C128.5 62.1 128 61.6 127.1 61.6C126.2 61.6 125.7 62.1 125.7 63.1V76.6C125.7 77.6 126.2 78.1 127.1 78.1C128 78.1 128.5 77.6 128.5 76.6V63.1Z" fill="#0D2025"/>
<path d="M134.4 58.8H137.6L140.6 71.6V58.8H143.6V81H140.4L137.5 68.6V81H134.4V58.8Z" fill="#0D2025"/>
<path d="M156.7 63.9L154.5 81H151.3L154.6 58.9H159L162.3 81H159L156.7 63.9Z" fill="#0D2025"/>
<path d="M164.1 58.8H167.3L170.3 71.6V58.8H173.3V81H170.1L167.2 68.6V81H164.1V58.8Z" fill="#0D2025"/>
<path d="M176.2 58.8H181.1C183.9 58.8 185.4 60.4 185.4 63.5V76.3C185.4 79.4 183.9 80.9 180.9 80.9H176.2V58.8ZM179.4 62V77.8H180.8C181.7 77.8 182.2 77.3 182.2 76.3V63.5C182.2 62.5 181.7 62 180.8 62H179.4Z" fill="#0D2025"/>
<path d="M42.8001 86.6V89.7H39.8001V108.7H36.6001V89.7H33.6001V86.6H42.8001Z" fill="#0D2025"/>
<path d="M44.9001 86.6H53.2001V89.7H48.1001V93.1H52.5001V96.3H48.1001V105.6H53.2001V108.7H44.9001V86.6Z" fill="#0D2025"/>
<path d="M61.4001 93.1V90.9C61.4001 89.9 60.9001 89.4 60.0001 89.4C59.1001 89.4 58.6001 89.9 58.6001 90.9V104.4C58.6001 105.4 59.1001 105.9 60.0001 105.9C60.9001 105.9 61.4001 105.4 61.4001 104.4V101.4H64.6001V104.4C64.6001 107.5 63.1001 109 60.0001 109C56.9001 109 55.4001 107.4 55.4001 104.4V90.9C55.4001 87.8 56.9001 86.2 60.0001 86.2C63.1001 86.2 64.6001 87.8 64.6001 90.9V93.1H61.4001Z" fill="#0D2025"/>
<path d="M67.1001 86.6H70.3001V99H73.1001V86.6H76.3001V108.7H73.1001V102.1H70.3001V108.7H67.1001V86.6Z" fill="#0D2025"/>
<path d="M85 86.6H93.3V89.7H88.2V99H92.6V102.2H88.2V105.6H93.3V108.7H85V86.6Z" fill="#0D2025"/>
<path d="M97.6001 108.7H94.4001L98.2001 96.3L95.2001 86.5H98.4001L99.8001 92.4L101.2 86.5H104.4L101.4 96.3L105.2 108.7H102L99.8001 100.2L97.6001 108.7Z" fill="#0D2025"/>
<path d="M112.6 93.1V90.9C112.6 89.9 112.1 89.4 111.2 89.4C110.3 89.4 109.8 89.9 109.8 90.9V104.4C109.8 105.4 110.3 105.9 111.2 105.9C112.1 105.9 112.6 105.4 112.6 104.4V101.4H115.8V104.4C115.8 107.5 114.3 109 111.2 109C108.1 109 106.6 107.4 106.6 104.4V90.9C106.6 87.8 108.1 86.2 111.2 86.2C114.3 86.2 115.8 87.8 115.8 90.9V93.1H112.6Z" fill="#0D2025"/>
<path d="M118.4 86.6H126.7V89.7H121.6V93.1H126V96.3H121.6V105.6H126.7V108.7H118.4V86.6Z" fill="#0D2025"/>
<path d="M129.1 108.7V86.6H132.3V105.6H137.4V108.7H129.1Z" fill="#0D2025"/>
<path d="M139.3 108.7V86.6H142.5V105.6H147.6V108.7H139.3Z" fill="#0D2025"/>
<path d="M149.5 86.6H157.8V89.7H152.7V93.1H157.1V96.3H152.7V105.6H157.8V108.7H149.5V86.6Z" fill="#0D2025"/>
<path d="M160.1 86.6H163.3L166.3 99.4V86.6H169.3V108.7H166.1L163.2 96.3V108.7H160.1V86.6Z" fill="#0D2025"/>
<path d="M178 93.1V90.9C178 89.9 177.5 89.4 176.6 89.4C175.7 89.4 175.2 89.9 175.2 90.9V104.4C175.2 105.4 175.7 105.9 176.6 105.9C177.5 105.9 178 105.4 178 104.4V101.4H181.2V104.4C181.2 107.5 179.7 109 176.6 109C173.5 109 172 107.4 172 104.4V90.9C172 87.8 173.5 86.2 176.6 86.2C179.7 86.2 181.2 87.8 181.2 90.9V93.1H178Z" fill="#0D2025"/>
<path d="M183.8 86.6H192.1V89.7H187V93.1H191.4V96.3H187V105.6H192.1V108.7H183.8V86.6Z" fill="#0D2025"/>
<path d="M83 119.4L80.7 136.5H77.5L80.8 114.4H85.2L88.5 136.5H85.3L83 119.4Z" fill="#0D2025"/>
<path d="M101.7 131.4L104 114.3H107.2L106.2 122.2L104 136.5H99.6L97.8 125L96.2 136.4H91.8L89.5 122.1L88.5 114.3H91.7L94 131.4L96.3 114.3H99.5L101.7 131.4Z" fill="#0D2025"/>
<path d="M113.5 119.4L111.2 136.5H108L111.3 114.4H115.7L119 136.5H115.8L113.5 119.4Z" fill="#0D2025"/>
<path d="M120.9 114.3H125.5C128.3 114.3 129.8 115.9 129.8 119V119.4C129.8 121.3 129 122.6 127.3 123.2L130.9 136.5H127.4L124.5 123.8L124.1 123.9V136.6H120.9V114.3ZM124.1 117.5V120.9H124.8C125.2 120.9 125.5 120.9 125.7 120.8C126.3 120.6 126.6 120.1 126.6 119.4V119C126.6 118 126.1 117.5 125.2 117.5H124.1Z" fill="#0D2025"/>
<path d="M132.6 114.3H137.5C140.3 114.3 141.8 115.9 141.8 119V131.8C141.8 134.9 140.3 136.4 137.3 136.4H132.6V114.3ZM135.8 117.5V133.3H137.2C138.1 133.3 138.6 132.8 138.6 131.8V119C138.6 118 138.1 117.5 137.2 117.5H135.8Z" fill="#0D2025"/>
<path d="M150.3 120.8V118.6C150.3 117.6 149.8 117.1 148.9 117.1C148 117.1 147.5 117.6 147.5 118.6V119C147.5 120.1 148.5 121.3 150.5 122.7C152.5 124.1 153.5 125.9 153.5 127.9V132.1C153.5 135.2 152 136.7 148.9 136.7C145.8 136.7 144.3 135.1 144.3 132.1V129.1H147.5V132.1C147.5 133.1 148 133.6 148.9 133.6C149.8 133.6 150.3 133.1 150.3 132.1V128C150.3 127 149.3 125.8 147.3 124.4C145.3 123 144.3 121.3 144.3 119.3V118.6C144.3 115.5 145.8 113.9 148.9 113.9C152 113.9 153.5 115.5 153.5 118.6V120.8H150.3Z" fill="#0D2025"/>
<path d="M88.1001 160.2C88.1001 159.2 88.6001 158.3 89.7001 157.5C90.7001 156.8 91.3001 156.1 91.3001 155.6V153.3C91.3001 152.8 91.1001 152.5 90.6001 152.5C90.1001 152.5 89.9001 152.8 89.9001 153.3V154.9H88.2001V153.3C88.2001 151.7 89.0001 150.9 90.6001 150.9C92.2001 150.9 93.0001 151.7 93.0001 153.3V155.6C93.0001 156.7 92.5001 157.6 91.4001 158.3C90.4001 159 89.8001 159.7 89.8001 160.3V161H93.0001V162.7H88.2001V160.2H88.1001Z" fill="#0D2025"/>
<path d="M99.3 160.4C99.3 162 98.5 162.8 96.9 162.8C95.3 162.8 94.5 162 94.5 160.4V153.3C94.5 151.7 95.3 150.9 96.9 150.9C98.5 150.9 99.3 151.7 99.3 153.3V160.4ZM97.6 153.3C97.6 152.8 97.4 152.5 96.9 152.5C96.4 152.5 96.2 152.8 96.2 153.3V160.4C96.2 160.9 96.4 161.2 96.9 161.2C97.4 161.2 97.6 160.9 97.6 160.4V153.3Z" fill="#0D2025"/>
<path d="M100.7 160.2C100.7 159.2 101.2 158.3 102.3 157.5C103.3 156.8 103.9 156.1 103.9 155.6V153.3C103.9 152.8 103.7 152.5 103.2 152.5C102.7 152.5 102.5 152.8 102.5 153.3V154.9H100.8V153.3C100.8 151.7 101.6 150.9 103.2 150.9C104.8 150.9 105.6 151.7 105.6 153.3V155.6C105.6 156.7 105.1 157.6 104 158.3C103 159 102.4 159.7 102.4 160.3V161H105.5V162.7H100.7V160.2Z" fill="#0D2025"/>
<path d="M111.9 160.4C111.9 162 111.1 162.8 109.5 162.8C107.9 162.8 107.1 162 107.1 160.4V153.3C107.1 151.7 107.9 150.9 109.5 150.9C111.1 150.9 111.9 151.7 111.9 153.3V160.4ZM110.2 153.3C110.2 152.8 110 152.5 109.5 152.5C109 152.5 108.8 152.8 108.8 153.3V160.4C108.8 160.9 109 161.2 109.5 161.2C110 161.2 110.2 160.9 110.2 160.4V153.3Z" fill="#0D2025"/>
<path d="M113.3 160.7H115.4V162.4L114.8 164.6H113.7L114 162.7H113.3V160.7Z" fill="#0D2025"/>
<path d="M119.9 160.2C119.9 159.2 120.4 158.3 121.5 157.5C122.5 156.8 123.1 156.1 123.1 155.6V153.3C123.1 152.8 122.9 152.5 122.4 152.5C121.9 152.5 121.7 152.8 121.7 153.3V154.9H120V153.3C120 151.7 120.8 150.9 122.4 150.9C124 150.9 124.8 151.7 124.8 153.3V155.6C124.8 156.7 124.3 157.6 123.2 158.3C122.2 159 121.6 159.7 121.6 160.3V161H124.7V162.7H119.9V160.2Z" fill="#0D2025"/>
<path d="M131 160.4C131 162 130.2 162.8 128.6 162.8C127 162.8 126.2 162 126.2 160.4V153.3C126.2 151.7 127 150.9 128.6 150.9C130.2 150.9 131 151.7 131 153.3V160.4ZM129.3 153.3C129.3 152.8 129.1 152.5 128.6 152.5C128.1 152.5 127.9 152.8 127.9 153.3V160.4C127.9 160.9 128.1 161.2 128.6 161.2C129.1 161.2 129.3 160.9 129.3 160.4V153.3Z" fill="#0D2025"/>
<path d="M132.5 160.2C132.5 159.2 133 158.3 134.1 157.5C135.1 156.8 135.7 156.1 135.7 155.6V153.3C135.7 152.8 135.5 152.5 135 152.5C134.5 152.5 134.3 152.8 134.3 153.3V154.9H132.6V153.3C132.6 151.7 133.4 150.9 135 150.9C136.6 150.9 137.4 151.7 137.4 153.3V155.6C137.4 156.7 136.9 157.6 135.8 158.3C134.8 159 134.2 159.7 134.2 160.3V161H137.3V162.7H132.5V160.2Z" fill="#0D2025"/>
<path d="M138.8 160.2C138.8 159.2 139.3 158.3 140.4 157.5C141.4 156.8 142 156.1 142 155.6V153.3C142 152.8 141.8 152.5 141.3 152.5C140.8 152.5 140.6 152.8 140.6 153.3V154.9H138.9V153.3C138.9 151.7 139.7 150.9 141.3 150.9C142.9 150.9 143.7 151.7 143.7 153.3V155.6C143.7 156.7 143.2 157.6 142.1 158.3C141.1 159 140.5 159.7 140.5 160.3V161H143.6V162.7H138.8V160.2Z" fill="#0D2025"/>
</g>
<defs>
<clipPath id="clip0_1111_8333">
<rect width="231.8" height="164.6" fill="white"/>
</clipPath>
</defs>
</svg>
