<svg width="644" height="601" viewBox="0 0 644 601" fill="none" xmlns="http://www.w3.org/2000/svg">
<path d="M13.9203 536.499C5.29948 524.511 2.16966 511.991 0.924843 502.416C0.499668 497.766 0.571336 494.006 0.453505 491.202C0.730039 488.673 0.817085 487.101 0.817085 487.101C0.817085 487.101 6.92284 490.263 14.6216 496.711C18.2739 499.798 23.0069 503.093 27.2584 507.685C29.3329 509.673 31.8019 511.936 33.9789 514.54C36.1559 517.144 38.3328 519.749 40.5098 522.353C41.7955 523.792 42.3949 525.298 43.2861 526.462C44.1774 527.627 45.1711 529.407 46.0624 530.572C47.9474 533.517 49.438 536.188 50.6367 539.199C51.236 540.705 52.1273 541.87 52.7266 543.375C53.3259 544.881 54.2172 546.046 54.4221 547.277C55.5183 549.673 56.3225 552.41 57.4187 554.806C59.2167 559.323 60.2258 563.291 61.03 566.028C61.8343 568.765 62.1416 570.612 62.1416 570.612C62.1416 570.612 61.7472 570.337 60.6664 570.129C59.5856 569.921 58.7967 569.372 56.9271 568.615C53.5823 567.375 49.4486 565.586 44.1317 562.973C41.4732 561.667 39.1067 560.019 36.3458 558.097C33.5849 556.175 30.824 554.253 28.063 552.331C25.3021 550.409 22.7307 547.531 20.2618 545.268C18.3767 542.323 15.8054 539.444 13.9203 536.499ZM120.448 503.979C117.41 504.586 114.081 505.534 110.751 506.482C107.422 507.43 104.779 508.311 101.449 509.259C95.871 511.363 90.2929 513.467 85.7956 515.779C81.5903 517.75 77.3849 519.72 74.8443 521.218C72.3037 522.715 71.0333 523.463 71.0333 523.463C71.0333 523.463 72.2166 524.287 75.167 525.252C76.6422 525.735 78.5119 526.492 80.3815 527.249C82.2511 528.007 84.4127 528.423 86.9687 529.114C89.5247 529.804 92.0807 530.495 94.9287 530.845C96.4039 531.328 97.7767 531.195 99.2519 531.677C101.019 531.819 102.1 532.027 103.867 532.169C110.249 532.802 117.216 532.753 124.269 531.132C127.993 530.458 131.322 529.51 133.965 528.629C135.63 528.155 136.9 527.407 138.565 526.933C139.835 526.184 141.5 525.71 142.771 524.962C148.246 522.242 152.933 518.974 156.641 516.113C160.35 513.251 163.372 510.457 165.124 508.411C166.876 506.364 168.044 505 168.044 505C168.044 505 166.568 504.518 163.72 504.168C162.64 503.96 160.872 503.818 159.105 503.676C157.338 503.535 155.176 503.119 153.015 502.702C148.4 502.211 143.493 502.061 137.899 501.977C135.153 502.242 132.014 502.234 129.268 502.5L126.917 503.04L124.858 503.239C123.485 503.372 122.112 503.505 120.448 503.979ZM94.9138 570.566C92.0504 568.029 89.5814 565.766 87.4045 563.162C85.2275 560.558 83.3425 557.613 81.5599 555.283C77.8923 550.009 75.9919 544.876 74.194 540.359C72.396 535.841 71.7813 532.148 71.269 529.07C70.4648 526.333 70.5518 524.761 70.5518 524.761C70.5518 524.761 72.0271 525.243 74.9775 526.209C76.4527 526.691 78.3223 527.449 79.9 528.547C81.7696 529.304 84.0337 530.336 86.2977 531.368C88.5617 532.4 91.2202 533.706 93.8787 535.012C95.062 535.836 96.5372 536.319 97.7204 537.142C98.9037 537.966 100.379 538.449 101.957 539.547C107.376 542.776 112.898 546.619 118.23 551.42C120.699 553.683 123.562 556.221 126.031 558.484C127.317 559.923 128.208 561.088 129.392 561.911C130.283 563.076 131.569 564.515 132.752 565.339C137.003 569.932 140.276 574.932 143.053 579.041C145.829 583.151 147.817 586.712 149.307 589.382C150.798 592.053 151.397 593.558 151.397 593.558C151.397 593.558 149.63 593.417 145.701 592.859C143.934 592.717 141.772 592.301 139.611 591.885C137.449 591.469 134.893 590.778 131.943 589.812C126.436 588.156 120.141 585.951 114.035 582.789C110.982 581.208 107.535 579.353 104.774 577.431C103.985 576.882 103.197 576.332 102.408 575.783C101.619 575.234 100.83 574.685 100.041 574.136C97.7771 573.104 96.1995 572.006 94.9138 570.566ZM191.094 517.781C188.159 519.003 185.224 520.226 182.391 522.064C179.456 523.286 176.623 525.124 174.083 526.621C172.813 527.37 171.542 528.118 170.272 528.867C169.002 529.615 167.731 530.364 166.855 531.387C164.315 532.884 162.461 534.314 160.314 536.086C156.606 538.947 153.189 541.467 151.146 543.854C150.27 544.878 148.999 545.626 148.707 545.967C148.123 546.649 147.832 546.99 147.832 546.99C147.832 546.99 148.226 547.265 148.912 547.198C149.993 547.406 151.074 547.614 152.155 547.823C155.003 548.172 159.326 549.005 164.627 549.43C167.081 549.505 170.221 549.514 172.674 549.589C175.814 549.598 178.56 549.332 181.992 549C182.678 548.933 183.365 548.867 184.343 548.459C185.029 548.393 186.008 547.985 186.694 547.919C188.359 547.445 189.732 547.312 191.396 546.838C194.726 545.89 198.055 544.942 200.99 543.72C207.547 541.208 213.212 537.532 217.796 533.648C222.381 529.764 226.279 525.946 229.198 522.536C232.118 519.126 234.351 515.782 235.709 513.461C237.066 511.14 237.839 509.502 237.839 509.502C237.839 509.502 237.445 509.227 236.759 509.294C236.072 509.36 234.991 509.152 233.619 509.285C231.165 509.21 227.339 509.267 222.929 510.007C214.692 510.805 203.126 512.55 191.094 517.781ZM182.561 588.039C179.114 586.183 175.958 583.987 173.197 582.065C170.436 580.143 167.967 577.88 165.498 575.617C164.607 574.452 163.029 573.354 162.138 572.189C161.247 571.025 160.356 569.86 159.464 568.695C157.682 566.366 156.294 564.311 154.906 562.256C152.129 558.146 150.536 554.86 149.046 552.189C148.446 550.684 147.949 549.794 147.847 549.178C147.744 548.562 147.35 548.288 147.35 548.288C147.35 548.288 149.117 548.429 151.965 548.779C154.813 549.129 159.136 549.961 164.248 551.343C166.804 552.034 169.36 552.725 172.311 553.69C175.261 554.655 178.212 555.621 181.162 556.586C181.951 557.135 182.637 557.069 183.426 557.618C184.215 558.167 184.901 558.101 185.69 558.65C187.165 559.132 189.035 559.89 190.51 560.372C193.855 561.612 196.908 563.193 200.355 565.049C206.856 568.485 212.669 571.988 217.899 576.173C223.027 579.742 227.57 583.994 231.222 587.081C234.977 590.783 237.943 593.936 240.017 595.924C242.092 597.913 243.085 599.693 243.085 599.693C243.085 599.693 242.399 599.76 241.713 599.826C241.026 599.893 239.654 600.026 237.594 600.225C234.163 600.557 229.255 600.407 223.559 599.707C222.187 599.84 220.711 599.357 218.944 599.216C217.177 599.074 215.702 598.592 213.935 598.45C210.692 597.825 207.45 597.201 203.813 596.302C202.338 595.82 200.176 595.403 198.701 594.921C196.831 594.163 195.356 593.681 193.487 592.923C189.353 591.134 186.008 589.894 182.561 588.039ZM263.502 517.025C260.669 518.863 258.523 520.635 256.085 522.747C254.815 523.496 253.647 524.86 252.771 525.883C251.895 526.906 250.333 527.996 249.457 529.019C245.267 533.178 241.369 536.995 238.552 541.021C235.34 544.773 233.004 547.501 231.355 550.162C229.603 552.209 228.83 553.847 228.83 553.847C228.83 553.847 230.597 553.989 233.737 553.998C236.877 554.006 240.995 553.608 246.092 552.801C248.837 552.536 251.188 551.995 254.226 551.388C257.263 550.781 259.906 549.9 262.842 548.678C265.777 547.455 269.106 546.507 271.647 545.01C274.874 543.447 277.706 541.609 280.539 539.771C283.371 537.933 285.81 535.82 288.248 533.708C290.686 531.595 292.73 529.208 294.481 527.162C296.525 524.774 297.883 522.454 299.634 520.407C300.992 518.087 302.057 516.107 303.415 513.786C305.545 509.827 306.698 506.275 307.661 503.68C308.624 501.084 308.711 499.512 308.711 499.512C308.711 499.512 307.338 499.645 304.695 500.527C303.322 500.659 301.657 501.133 299.993 501.607C298.328 502.081 296.371 502.896 294.02 503.437C291.669 503.977 289.712 504.792 287.069 505.673C286.091 506.081 284.426 506.555 283.448 506.962C282.762 507.029 282.178 507.711 281.491 507.777C280.805 507.844 280.221 508.526 279.535 508.592C276.891 509.474 274.351 510.971 271.81 512.468C270.54 513.216 269.27 513.965 267.707 515.054C266.043 515.528 264.772 516.277 263.502 517.025ZM272.333 586.853C268.302 585.68 264.957 584.44 261.904 582.859C260.035 582.102 258.852 581.278 256.982 580.521C255.404 579.422 253.929 578.94 252.746 578.116C246.932 574.613 242.491 570.977 239.131 567.549C235.771 564.122 232.805 560.969 231.022 558.639C229.24 556.31 228.348 555.145 228.348 555.145C228.348 555.145 230.407 554.946 233.153 554.68C236.293 554.688 240.411 554.29 245.713 554.715C248.166 554.79 251.014 555.14 254.154 555.148C257.002 555.498 260.142 555.507 263.385 556.131C266.627 556.756 270.161 557.039 273.404 557.663C276.646 558.287 280.283 559.186 283.92 560.085C287.556 560.984 290.901 562.224 294.246 563.464C297.591 564.704 300.936 565.944 303.594 567.25C306.647 568.831 309.306 570.138 311.964 571.444C314.623 572.75 316.989 574.398 319.253 575.43C323.884 578.109 327.433 580.58 329.8 582.227C332.166 583.875 333.744 584.973 333.744 584.973C333.744 584.973 331.787 585.788 328.75 586.395C327.085 586.869 325.026 587.068 322.675 587.609C320.324 588.149 317.578 588.415 314.833 588.681C312.087 588.946 308.655 589.279 305.515 589.27C303.748 589.128 302.083 589.602 300.316 589.461C299.63 589.527 298.549 589.319 297.863 589.385C297.176 589.452 296.096 589.244 295.409 589.31C291.875 589.027 287.946 588.469 284.412 588.186C282.645 588.044 280.483 587.628 279.008 587.145C276.073 588.368 274.203 587.61 272.333 586.853ZM334.24 502.045C333.072 503.409 332.196 504.432 331.028 505.796C329.861 507.16 328.985 508.183 328.109 509.206C326.065 511.593 324.708 513.914 323.058 516.576C321.701 518.896 320.052 521.558 318.694 523.879C317.337 526.2 316.271 528.179 314.914 530.5C312.783 534.459 311.339 538.352 309.982 540.673C309.019 543.268 308.245 544.907 308.245 544.907C308.245 544.907 309.91 544.433 312.947 543.826C314.32 543.693 316.277 542.878 318.336 542.679C320.293 541.864 322.644 541.324 324.995 540.783C329.595 539.087 335.465 536.642 340.546 533.648C343.087 532.151 345.919 530.313 348.357 528.2C350.795 526.088 353.234 523.975 355.964 521.521C358.3 518.793 360.343 516.406 361.993 513.744C363.642 511.083 365.291 508.421 366.649 506.1C369.261 500.843 370.895 495.993 371.551 491.551C371.74 490.595 372.221 489.297 372.411 488.341C372.601 487.384 372.79 486.427 372.98 485.471C373.359 483.557 373.446 481.985 373.241 480.754C373.517 478.225 373.21 476.378 373.21 476.378C373.21 476.378 371.545 476.852 369.297 478.008C367.048 479.164 363.426 480.453 359.616 482.699C357.659 483.514 355.805 484.944 353.556 486.1C351.307 487.256 349.161 489.028 347.307 490.458C345.161 492.23 343.014 494.002 340.576 496.114C338.722 497.545 336.284 499.657 334.24 502.045ZM359.632 568.705C357.865 568.564 355.703 568.147 353.936 568.006C352.855 567.798 352.169 567.864 351.088 567.656C350.007 567.448 349.321 567.514 348.532 566.965C344.895 566.066 341.55 564.826 338.6 563.861C335.649 562.896 332.596 561.315 329.646 560.349C326.988 559.043 324.329 557.737 322.357 556.364C317.726 553.684 314.863 551.147 312.497 549.499C310.13 547.852 308.844 546.413 308.844 546.413C308.844 546.413 310.509 545.939 313.547 545.332C315.211 544.858 316.876 544.384 318.935 544.185C320.994 543.985 323.346 543.445 325.697 542.905C330.793 542.098 336.576 541.226 343.148 540.902C346.58 540.57 349.72 540.579 353.546 540.521C357.081 540.804 360.907 540.746 364.441 541.03C367.976 541.313 371.904 541.871 375.439 542.154C378.681 542.779 382.318 543.677 385.56 544.302C392.045 545.55 397.946 547.481 402.766 549.204C404.241 549.686 405.322 549.895 406.111 550.444C407.192 550.652 408.375 551.476 409.456 551.684C411.325 552.441 413.195 553.198 414.67 553.681C417.329 554.987 419.198 555.744 419.198 555.744C419.198 555.744 417.636 556.834 414.409 558.397C411.182 559.961 406.977 561.932 401.296 563.42C398.653 564.302 395.324 565.25 392.286 565.856C389.249 566.463 385.525 567.137 381.801 567.81C378.077 568.483 374.645 568.815 370.819 568.873C367.679 568.864 363.853 568.922 359.632 568.705ZM399.584 473.512C396.286 478.836 394.068 484.367 392.142 489.558C390.216 494.748 388.976 499.872 387.634 504.381C386.293 508.889 385.929 512.99 385.652 515.519C385.376 518.048 384.997 519.961 384.997 519.961C384.997 519.961 386.661 519.487 389.596 518.265C392.532 517.043 396.05 515.138 400.153 512.551C404.651 510.239 409.235 506.355 413.425 502.197C414.301 501.173 415.863 500.084 416.739 499.061C417.615 498.038 418.783 496.674 419.951 495.31C421.994 492.922 423.644 490.261 425.585 487.258C426.359 485.619 427.234 484.596 428.008 482.957C428.781 481.319 429.263 480.021 429.744 478.724C430.999 475.787 431.568 472.917 432.136 470.048C433.668 464.582 433.827 459.25 433.401 454.6C433.371 450.224 432.756 446.531 432.346 444.068C431.936 441.606 431.337 440.1 431.337 440.1C431.337 440.1 426.256 443.094 419.92 449.025C416.897 451.819 413.291 455.296 409.788 459.388C405.89 463.206 402.489 467.914 399.584 473.512ZM440.922 533.312C432.685 534.109 425.324 533.884 418.942 533.251C412.165 532.343 406.264 530.412 401.152 529.031C396.332 527.308 392.593 525.794 389.54 524.213C386.882 522.906 385.304 521.808 385.304 521.808C385.304 521.808 386.574 521.06 389.509 519.837C392.05 518.34 395.963 516.71 400.563 515.014C405.163 513.317 410.741 511.214 417.108 509.659C418.773 509.185 420.437 508.711 421.81 508.578C423.475 508.104 425.14 507.63 426.804 507.156C430.134 506.208 433.566 505.876 437.684 505.477C439.743 505.278 441.116 505.145 443.175 504.946C445.234 504.746 446.607 504.613 448.666 504.414C452.098 504.082 455.632 504.365 459.064 504.033C466.819 504.533 472.807 504.891 478.109 505.316C483.41 505.741 487.734 506.574 490.976 507.198C494.218 507.822 495.694 508.305 495.694 508.305C495.694 508.305 489.941 513.553 480.465 519.475C475.384 522.469 469.222 525.255 462.666 527.766C456.109 530.278 448.764 532.24 440.922 533.312ZM455.913 432.717C455.345 435.586 454.484 438.797 453.916 441.667C453.347 444.537 452.779 447.407 452.502 449.936C452.051 455.609 451.893 460.941 451.924 465.317C451.954 469.692 452.277 473.727 452.395 476.53C452.513 479.334 453.112 480.84 453.112 480.84C453.112 480.84 454.382 480.091 457.215 478.253C458.485 477.505 460.048 476.415 461.215 475.051C461.799 474.369 462.778 473.961 463.654 472.938C464.237 472.256 465.113 471.233 466.384 470.485C467.844 468.78 469.99 467.008 471.741 464.962C473.493 462.916 475.537 460.528 476.894 458.208C478.544 455.546 480.193 452.884 481.156 450.289C481.638 448.991 482.411 447.353 482.892 446.055C483.374 444.757 484.147 443.119 484.234 441.546C485.095 438.336 485.663 435.466 485.838 432.321C486.012 429.177 486.288 426.648 486.462 423.504C486.227 417.897 485.013 412.698 484.296 408.388C483.594 406.267 483.286 404.42 482.293 402.64C481.693 401.134 481.094 399.628 480.495 398.123C479.399 395.727 478.799 394.221 478.799 394.221C478.799 394.221 477.923 395.244 476.172 397.29C474.42 399.336 472.376 401.724 469.851 405.408C468.391 407.113 467.326 409.093 466.26 411.073C465.195 413.053 463.443 415.099 462.48 417.694C461.123 420.015 460.16 422.61 459.197 425.205C457.737 426.91 456.774 429.506 455.913 432.717ZM510.917 482.436C507.295 483.725 503.571 484.398 499.848 485.072C496.124 485.745 492.692 486.077 489.26 486.41C482.688 486.733 476.408 486.716 471.399 485.95C466.389 485.184 462.066 484.351 459.115 483.386C456.165 482.421 454.69 481.938 454.69 481.938C454.69 481.938 455.858 480.574 458.398 479.077C459.668 478.328 460.836 476.964 462.793 476.149C463.771 475.742 464.355 475.06 465.626 474.311C466.604 473.904 467.48 472.881 468.75 472.132C470.604 470.702 473.145 469.205 475.686 467.708C478.226 466.21 481.161 464.988 483.702 463.491C486.243 461.994 489.47 460.431 492.405 459.208C494.069 458.734 495.632 457.645 497.296 457.171C498.961 456.697 500.918 455.882 502.582 455.408C506.204 454.119 509.533 453.171 512.863 452.223C516.192 451.275 519.916 450.602 522.954 449.995C529.715 448.715 535.892 448.117 541.092 447.926C543.837 447.66 546.291 447.736 548.35 447.536C550.409 447.337 552.176 447.478 554.235 447.279C557.375 447.288 559.142 447.429 559.142 447.429C559.142 447.429 557.974 448.794 556.325 451.455C554.281 453.843 551.07 457.594 546.777 461.137C544.631 462.909 542.193 465.021 540.047 466.793C537.609 468.905 534.776 470.743 531.943 472.581C529.111 474.419 525.592 476.324 522.365 477.887C518.452 479.517 514.538 481.147 510.917 482.436ZM501.767 381.363C501.593 384.508 501.711 387.311 501.829 390.115C501.947 392.918 502.459 395.996 502.577 398.799C503.499 404.34 504.318 409.265 505.43 413.848C506.132 415.97 506.834 418.091 507.141 419.938C507.448 421.784 508.048 423.29 508.647 424.796C509.451 427.533 510.342 428.698 510.342 428.698C510.342 428.698 511.51 427.334 513.657 425.562C515.408 423.516 518.036 420.447 520.459 416.146C521.524 414.166 523.276 412.12 524.239 409.525C525.596 407.204 526.559 404.609 527.814 401.673C528.777 399.077 529.638 395.867 530.206 392.997C530.775 390.127 531.241 386.641 531.415 383.497C531.589 380.353 531.763 377.208 531.251 374.13C530.739 371.052 529.934 368.315 529.13 365.578C527.522 360.104 525.724 355.587 523.239 351.136C520.858 347.301 518.578 344.082 517.19 342.027C515.407 339.697 514.516 338.532 514.516 338.532C514.516 338.532 513.64 339.555 512.283 341.876C511.801 343.174 510.926 344.197 510.152 345.836C509.963 346.792 509.379 347.474 509.189 348.431C508.605 349.113 508.416 350.07 508.226 351.026C507.453 352.665 506.782 354.919 506.111 357.173C505.44 359.428 504.769 361.682 503.806 364.277C503.135 366.531 502.566 369.401 501.998 372.271C501.911 373.843 501.429 375.141 501.342 376.713C501.941 378.219 501.854 379.791 501.767 381.363ZM567.676 419.081C564.157 420.985 560.93 422.549 557.703 424.112C554.476 425.676 551.146 426.623 547.817 427.571C541.158 429.467 534.981 430.065 530.176 430.53C527.43 430.796 525.371 430.996 522.918 430.92C520.858 431.12 519.091 430.978 517.324 430.836C514.184 430.828 512.709 430.345 512.709 430.345C512.709 430.345 513.877 428.981 515.629 426.935C517.38 424.889 520.008 421.819 523.614 418.343C525.074 416.638 527.22 414.866 529.366 413.094C531.513 411.323 533.556 408.936 536.097 407.439C538.535 405.326 541.368 403.488 544.2 401.65C547.033 399.812 549.865 397.974 552.99 395.795C555.823 393.957 559.342 392.052 562.277 390.83C565.504 389.266 568.439 388.044 571.666 386.48C577.536 384.036 584.195 382.14 588.794 380.443C593.789 379.022 598.491 377.941 601.528 377.334C604.566 376.727 606.625 376.528 606.625 376.528C606.625 376.528 605.851 378.166 604.597 381.103C603.823 382.741 603.05 384.38 601.984 386.36C601.4 387.042 600.919 388.339 600.043 389.363C599.167 390.386 598.686 391.683 597.81 392.706C596.452 395.027 594.409 397.414 592.365 399.801C590.321 402.189 588.277 404.576 585.547 407.029C582.612 408.252 579.882 410.705 576.757 412.885C575.195 413.974 573.633 415.064 572.071 416.153C570.8 416.902 569.238 417.991 567.676 419.081ZM533.832 322.588C534.431 324.094 534.344 325.666 534.944 327.172C535.148 328.403 535.748 329.909 536.347 331.415C537.151 334.152 537.956 336.888 539.446 339.559C541.741 344.966 543.933 349.758 546.315 353.593C548.405 357.77 550.685 360.989 552.175 363.66C553.958 365.989 554.849 367.154 554.849 367.154C554.849 367.154 558.44 361.489 561.912 353.022C563.254 348.513 564.494 343.389 565.631 337.649C566.082 331.976 566.036 325.413 565.011 319.257C563.592 312.826 561.297 307.419 558.316 302.078C555.043 297.078 551.872 292.693 548.906 289.54C545.546 286.112 542.683 283.575 540.608 281.586C538.242 279.939 537.059 279.115 537.059 279.115C537.059 279.115 536.577 280.413 535.906 282.667C535.235 284.922 534.375 288.132 534.011 292.233C533.647 296.334 532.992 300.777 532.833 306.109C533.038 307.34 532.951 308.912 533.156 310.143C533.361 311.375 533.274 312.947 533.478 314.178C532.516 316.773 533.028 319.851 533.832 322.588ZM607.198 346.448C606.03 347.812 604.468 348.901 602.906 349.991C601.344 351.08 599.781 352.17 598.219 353.259C595.386 355.097 592.554 356.935 589.327 358.499C583.559 361.559 577.587 363.389 572.593 364.811C567.598 366.232 563.188 366.972 560.151 367.579C557.113 368.186 555.346 368.044 555.346 368.044C555.346 368.044 557.856 362.172 563.096 353.845C565.519 349.545 568.628 345.178 572.321 340.129C576.014 335.08 580.393 329.965 585.562 325.398C590.336 320.558 596.293 316.541 601.563 312.59C606.834 308.639 612.31 305.92 616.807 303.608C621.305 301.296 625.51 299.325 628.445 298.102C631.38 296.88 633.045 296.406 633.045 296.406C633.045 296.406 632.666 298.319 632.097 301.189C631.237 304.4 630.187 308.568 628.261 313.758C626.627 318.608 623.43 324.547 619.84 330.211C619.066 331.85 617.899 333.214 617.023 334.237C615.855 335.601 614.687 336.965 613.519 338.329C612.556 340.925 610.22 343.653 607.198 346.448ZM550.458 259.053C551.949 261.723 553.147 264.735 554.93 267.064C556.421 269.735 558.203 272.064 559.986 274.393C563.551 279.052 566.722 283.437 570.082 286.864C571.762 288.578 573.442 290.292 574.728 291.731C576.013 293.171 577.299 294.61 578.482 295.434C580.557 297.422 581.74 298.246 581.74 298.246C581.74 298.246 582.222 296.948 582.79 294.078C583.753 291.483 584.117 287.382 584.772 282.94C585.049 280.411 585.034 278.223 585.31 275.695C585.192 272.891 585.074 270.088 584.665 267.625C584.152 264.547 584.035 261.744 582.836 258.732C581.637 255.721 580.833 252.984 579.24 249.698C578.641 248.192 577.749 247.027 577.15 245.522C576.653 244.632 576.259 244.357 575.762 243.467C575.265 242.577 574.871 242.302 574.374 241.412C572.591 239.082 570.414 236.478 568.632 234.149C566.557 232.161 564.483 230.172 562.408 228.184C560.334 226.195 558.361 224.822 556.389 223.45C552.445 220.704 548.998 218.848 546.339 217.542C543.681 216.236 542.206 215.753 542.206 215.753C542.206 215.753 542.119 217.325 542.134 219.513C542.339 220.744 542.252 222.316 542.165 223.889C542.078 225.461 542.385 227.308 542.401 229.495C542.723 233.53 543.543 238.455 544.655 243.038C545.064 245.501 545.869 248.238 546.965 250.634C548.163 253.645 549.654 256.316 550.458 259.053ZM628.229 267.473C626.288 270.476 623.952 273.204 621.222 275.658C618.887 278.386 616.448 280.499 614.01 282.611C608.739 286.562 604.053 289.83 599.555 292.142C598.285 292.891 597.307 293.298 596.328 293.706C595.35 294.113 594.372 294.521 593.393 294.928C591.437 295.743 589.772 296.217 588.502 296.966C585.567 298.188 583.902 298.662 583.902 298.662C583.902 298.662 583.989 297.09 584.952 294.495C585.915 291.899 586.673 288.073 588.015 283.564C588.686 281.31 589.649 278.715 590.612 276.12C591.575 273.524 592.538 270.929 593.793 267.993C595.047 265.056 596.697 262.395 597.952 259.458C599.601 256.796 601.148 253.519 603.484 250.791C604.652 249.427 605.425 247.788 606.593 246.424C607.761 245.06 608.929 243.696 609.804 242.673C611.848 240.286 614.184 237.557 616.228 235.17C618.271 232.783 620.71 230.67 622.856 228.899C625.002 227.127 626.754 225.081 628.9 223.31C632.9 220.107 636.317 217.587 638.755 215.475C641.296 213.978 642.858 212.888 642.858 212.888C642.858 212.888 643.165 214.735 642.991 217.879C642.904 219.452 643.212 221.298 643.227 223.486C643.242 225.674 642.966 228.203 642.689 230.732C641.844 236.13 640.707 241.87 638.986 248.292C637.731 251.228 636.579 254.78 635.032 258.057C632.01 260.852 630.463 264.129 628.229 267.473ZM551.764 193.56C553.546 195.89 556.015 198.153 557.798 200.482C559.872 202.47 562.341 204.733 564.416 206.722C566.49 208.71 568.857 210.358 570.931 212.346C573.298 213.994 574.978 215.707 576.95 217.08C580.894 219.826 584.444 222.297 587.102 223.603C589.469 225.251 591.339 226.008 591.339 226.008C591.339 226.008 591.426 224.436 591.308 221.632C591.395 220.06 591.482 218.488 591.175 216.641C590.867 214.794 590.852 212.607 590.442 210.144C590.032 207.682 589.622 205.22 588.921 203.098C588.716 201.867 588.116 200.361 587.911 199.13C587.809 198.514 587.707 197.899 587.21 197.009C587.107 196.393 586.61 195.503 586.508 194.887C585.704 192.15 584.213 189.48 582.723 186.809C582.123 185.304 581.232 184.139 580.341 182.974C579.449 181.809 578.164 180.37 577.272 179.205C575.095 176.601 572.626 174.338 570.552 172.35C569.369 171.526 568.083 170.087 566.9 169.263C565.716 168.44 564.533 167.616 562.956 166.518C557.828 162.948 552.906 160.61 548.378 158.546C543.849 156.483 539.818 155.309 537.262 154.619C534.706 153.928 532.545 153.512 532.545 153.512C532.545 153.512 532.749 154.743 533.159 157.205C533.861 159.326 534.768 162.679 535.777 166.647C536.479 168.768 537.472 170.549 538.174 172.67C538.876 174.791 539.972 177.187 541.36 179.242C542.456 181.638 544.239 183.968 545.335 186.364C547.804 188.627 549.587 190.956 551.764 193.56ZM629.325 186.05C627.778 189.328 626.523 192.264 624.976 195.541C623.035 198.544 621.385 201.206 619.342 203.593C617.298 205.98 615.254 208.367 613.502 210.414C611.751 212.46 609.604 214.231 607.458 216.003C603.458 219.205 600.041 221.725 597.501 223.222C594.96 224.719 593.69 225.468 593.69 225.468C593.69 225.468 593.777 223.895 593.659 221.092C593.454 219.861 593.833 217.948 593.526 216.101C593.905 214.188 593.889 212 593.874 209.812C593.859 207.624 594.135 205.095 594.704 202.226C594.791 200.653 594.98 199.697 595.067 198.124C594.965 197.509 595.549 196.827 595.446 196.211C595.344 195.596 595.533 194.639 595.825 194.298C596.394 191.428 596.962 188.558 597.823 185.347C598.304 184.05 598.683 182.137 599.457 180.498C600.23 178.859 600.317 177.287 601.091 175.648C602.346 172.712 603.893 169.435 605.148 166.498C605.921 164.86 606.402 163.562 607.57 162.198C608.344 160.559 609.22 159.536 609.701 158.239C613 152.915 616.007 147.933 619.218 144.181C622.035 140.155 624.955 136.745 626.707 134.699C628.751 132.312 629.626 131.289 629.626 131.289C629.626 131.289 630.226 132.795 631.132 136.147C632.331 139.159 633.048 143.468 633.576 148.733C633.986 151.196 634.104 153.999 634.324 157.418C634.442 160.222 634.268 163.366 633.801 166.852C633.627 169.996 633.161 173.481 632.301 176.692C631.732 179.562 630.58 183.114 629.325 186.05ZM536.596 129.662C541.431 133.573 546.559 137.142 552.27 140.03C557.295 142.983 562.612 145.596 567.432 147.319C571.96 149.382 575.992 150.556 578.65 151.862C581.6 152.828 583.076 153.31 583.076 153.31C583.076 153.31 582.973 152.695 582.871 152.079C582.768 151.464 582.563 150.232 582.358 149.001C581.554 146.264 580.253 142.637 578.85 138.394C575.356 129.975 568.605 118.744 558.145 110.374C555.676 108.111 552.623 106.53 549.57 104.95C546.518 103.369 543.859 102.062 541.201 100.756C539.725 100.273 538.542 99.4494 537.067 98.9667C535.592 98.4841 534.117 98.0014 533.036 97.7933C530.48 97.1025 527.924 96.4117 525.368 95.7209C520.65 94.6139 516.429 94.397 513.581 94.0473C512.209 94.1802 511.128 93.9721 510.047 93.764C509.361 93.8304 508.674 93.8969 508.674 93.8969C508.674 93.8969 509.274 95.4026 510.267 97.183C511.364 99.5789 512.854 102.249 515.528 105.744C516.522 107.524 517.91 109.579 519.59 111.293C520.978 113.348 522.658 115.061 524.441 117.391C524.835 117.665 525.332 118.556 525.727 118.83C526.121 119.105 526.618 119.995 527.012 120.269C527.903 121.434 529.087 122.258 529.978 123.423C531.761 125.752 534.127 127.399 536.596 129.662ZM610.909 106.829C609.977 113.8 607.57 120.289 605.06 126.161C602.55 132.034 599.149 136.742 596.332 140.768C593.515 144.793 590.493 147.588 588.741 149.634C586.595 151.406 585.427 152.77 585.427 152.77C585.427 152.77 585.324 152.154 585.222 151.539C585.119 150.923 584.914 149.692 584.315 148.186C583.511 145.449 582.502 141.481 581.785 137.172C580.248 127.938 578.885 115.56 580.458 101.959C580.924 98.4735 581.492 95.6036 581.958 92.1182C582.819 88.9073 583.387 86.0374 584.248 82.8266C584.729 81.5289 585.503 79.8903 585.59 78.318C586.071 77.0204 586.553 75.7227 587.034 74.4251C587.997 71.8298 588.96 69.2345 590.026 67.2548C592.054 62.6798 593.893 59.0615 595.542 56.3997C596.024 55.1021 596.9 54.079 597.484 53.397C598.067 52.7149 598.359 52.3739 598.359 52.3739C598.359 52.3739 598.754 52.6485 599.251 53.5386C599.748 54.4288 600.244 55.3189 600.844 56.8247C602.334 59.4952 604.424 63.6714 606.325 68.8043C607.421 71.2002 608.225 73.9371 608.737 77.0151C609.25 80.0931 609.762 83.1711 610.669 86.5236C610.771 87.1392 610.976 88.3704 611.078 88.986C611.181 89.6016 611.386 90.8327 611.488 91.4483C611.795 93.2951 611.708 94.8673 611.621 96.4395C611.55 100.2 611.376 103.344 610.909 106.829ZM561.684 41.5381C563.277 44.8242 564.184 48.1767 565.382 51.1882C565.982 52.694 566.289 54.5408 566.494 55.7719C566.801 57.6187 567.006 58.8499 566.919 60.4221C567.549 66.3035 567.785 71.9103 567.232 76.968C566.971 81.6846 565.526 85.5775 565.25 88.1064C564.287 90.7016 564.2 92.2739 564.2 92.2739C564.2 92.2739 562.622 91.1756 560.547 89.1872C559.656 88.0224 558.078 86.9241 556.793 85.4848C555.507 84.0456 553.827 82.3317 552.147 80.6178C548.786 77.1901 545.221 72.5312 541.948 67.5312C540.166 65.2018 538.281 62.2567 536.79 59.5862C536.293 58.6961 536.191 58.0805 535.402 57.5313C534.905 56.6412 534.803 56.0256 534.014 55.4764C533.414 53.9707 532.129 52.5314 531.529 51.0256C529.936 47.7396 528.738 44.728 527.539 41.7165C526.34 38.705 525.142 35.6935 524.629 32.6155C522.919 26.5261 521.997 20.9857 521.177 16.061C520.357 11.1362 520.035 7.10164 519.917 4.29824C520.588 2.04397 520.675 0.47176 520.675 0.47176C520.675 0.47176 522.544 1.22901 525.305 3.15098C526.781 3.63365 528.358 4.73195 530.33 6.10478C532.302 7.47763 534.274 8.85047 536.349 10.8389C538.715 12.4863 540.79 14.4747 543.259 16.7377C544.15 17.9025 545.728 19.0007 546.619 20.1655C547.51 21.3302 548.796 22.7695 549.687 23.9342C554.333 28.8013 558.79 34.6249 561.684 41.5381ZM54.8056 476.244C41.457 475.66 28.3287 478.495 18.9242 480.657C14.222 481.737 9.91422 483.093 7.27112 483.974C4.62805 484.856 2.67133 485.671 2.67133 485.671C2.67133 485.671 7.90125 489.856 16.6655 494.324C21.1935 496.387 26.8024 498.659 32.7033 500.59C35.6537 501.555 38.8961 502.18 42.4305 502.463C45.6729 503.087 49.2072 503.371 53.0336 503.313C54.8007 503.454 56.5679 503.596 58.2326 503.122C59.9998 503.264 61.6645 502.79 63.0373 502.657C66.4692 502.325 69.5067 501.718 72.5442 501.111C74.2089 500.637 75.5817 500.504 76.852 499.756C78.5167 499.282 79.4951 498.874 81.1598 498.4C83.8029 497.519 86.0515 496.363 88.3002 495.207C92.5055 493.236 96.3164 490.99 98.1707 489.56C100.711 488.063 101.587 487.04 101.587 487.04C101.587 487.04 101.193 486.765 100.798 486.491C100.404 486.216 99.3232 486.008 98.1399 485.184C95.8758 484.152 92.531 482.913 88.1054 481.464C85.9438 481.048 83.6798 480.016 81.1238 479.326C78.5677 478.635 76.0117 477.944 73.1637 477.594C70.3158 477.245 67.7597 476.554 64.2254 476.27C61.4799 476.536 58.3399 476.528 54.8056 476.244Z" fill="#F5F5F5"/>
</svg>
