<svg width="619" height="766" viewBox="0 0 619 766" fill="none" xmlns="http://www.w3.org/2000/svg">
<path d="M586.869 743.307C600.337 733.032 608.056 720.438 612.719 710.441C614.789 705.529 616.015 701.425 617.113 698.42C617.69 695.588 618.141 693.854 618.141 693.854C618.141 693.854 610.449 695.348 599.896 699.902C594.881 702.093 588.625 704.167 582.44 707.802C579.51 709.301 576.058 710.974 572.804 713.109C569.55 715.244 566.295 717.38 563.041 719.515C561.153 720.669 559.984 722.113 558.617 723.094C557.251 724.075 555.56 725.692 554.194 726.673C551.137 729.271 548.601 731.697 546.262 734.585C545.093 736.029 543.727 737.01 542.557 738.454C541.388 739.898 540.022 740.879 539.374 742.15C537.359 744.403 535.542 747.118 533.527 749.37C530.02 753.702 527.554 757.689 525.737 760.404C523.92 763.119 522.948 765.026 522.948 765.026C522.948 765.026 523.469 764.853 524.709 764.97C525.949 765.087 526.992 764.742 529.274 764.513C533.318 764.229 538.404 763.599 545.054 762.451C548.379 761.877 551.507 760.84 555.156 759.631C558.805 758.421 562.454 757.211 566.103 756.002C569.752 754.792 573.527 752.484 576.979 750.811C580.036 748.213 583.812 745.905 586.869 743.307ZM483.036 674.203C486.108 675.826 489.377 677.911 492.646 679.997C495.915 682.082 498.465 683.878 501.734 685.963C507.032 690.017 512.33 694.071 516.389 698.007C520.249 701.481 524.11 704.955 526.337 707.386C528.563 709.817 529.676 711.032 529.676 711.032C529.676 711.032 528.113 711.551 524.59 711.662C522.829 711.718 520.547 711.946 518.264 712.175C515.982 712.403 513.502 712.169 510.501 712.107C507.5 712.046 504.499 711.984 501.3 711.46C499.539 711.516 498.102 710.936 496.341 710.991C494.383 710.584 493.143 710.467 491.184 710.06C484.069 708.721 476.559 706.457 469.5 702.459C465.71 700.547 462.441 698.461 459.89 696.666C458.256 695.623 457.142 694.407 455.508 693.365C454.395 692.149 452.76 691.106 451.647 689.891C446.673 685.201 442.741 680.166 439.726 675.884C436.71 671.602 434.413 667.61 433.229 664.833C432.045 662.056 431.256 660.205 431.256 660.205C431.256 660.205 433.017 660.15 436.216 660.674C437.456 660.791 439.414 661.198 441.373 661.605C443.331 662.012 445.811 662.247 448.291 662.481C453.447 663.413 458.801 664.807 464.874 666.491C467.749 667.651 471.144 668.638 474.019 669.798L476.372 671.13L478.527 672C479.965 672.58 481.402 673.16 483.036 674.203ZM487.555 754.575C491.527 752.73 494.979 751.057 498.234 748.922C501.488 746.787 504.545 744.189 507.278 742.226C513.068 737.666 516.9 732.698 520.408 728.366C523.915 724.034 525.859 720.221 527.479 717.043C529.296 714.328 529.747 712.594 529.747 712.594C529.747 712.594 527.986 712.649 524.464 712.761C522.702 712.816 520.42 713.045 518.335 713.736C516.052 713.964 513.249 714.366 510.445 714.767C507.641 715.168 504.316 715.742 500.991 716.316C499.427 716.835 497.666 716.89 496.102 717.409C494.538 717.927 492.777 717.983 490.692 718.674C483.718 720.458 476.42 722.877 468.995 726.395C465.544 728.068 461.571 729.913 458.119 731.585C456.231 732.739 454.865 733.72 453.301 734.239C451.934 735.22 450.047 736.374 448.483 736.893C442.298 740.528 437.029 744.915 432.605 748.494C428.182 752.074 424.801 755.307 422.265 757.732C419.729 760.158 418.56 761.602 418.56 761.602C418.56 761.602 420.518 762.009 424.957 762.65C426.915 763.057 429.395 763.292 431.875 763.526C434.354 763.76 437.355 763.822 440.878 763.711C447.401 763.661 454.967 763.265 462.66 761.772C466.506 761.025 470.873 760.105 474.522 758.895C475.565 758.55 476.608 758.204 477.65 757.858C478.693 757.513 479.735 757.167 480.778 756.822C483.582 756.42 485.667 755.729 487.555 754.575ZM401.923 666.76C404.671 669.019 407.418 671.277 409.842 674.171C412.59 676.429 415.014 679.323 417.24 681.754C418.353 682.969 419.466 684.185 420.58 685.401C421.693 686.616 422.806 687.832 423.398 689.22C425.624 691.651 427.132 693.792 428.837 696.396C431.853 700.678 434.671 704.498 436.052 707.737C436.644 709.126 437.758 710.341 437.955 710.804C438.349 711.729 438.547 712.192 438.547 712.192C438.547 712.192 438.025 712.365 437.307 712.075C436.067 711.958 434.827 711.841 433.587 711.724C430.389 711.199 425.429 710.731 419.554 709.509C416.877 708.812 413.481 707.825 410.804 707.128C407.409 706.141 404.534 704.981 400.941 703.531C400.223 703.241 399.504 702.951 398.588 702.198C397.87 701.908 396.954 701.156 396.235 700.866C394.601 699.823 393.163 699.243 391.529 698.2C388.26 696.115 384.991 694.029 382.243 691.771C376.029 686.965 371.182 681.177 367.574 675.506C363.967 669.836 361.078 664.455 359.105 659.827C357.132 655.199 355.877 650.862 355.215 647.912C354.552 644.963 354.284 642.939 354.284 642.939C354.284 642.939 354.805 642.766 355.524 643.056C356.243 643.346 357.483 643.463 358.92 644.043C361.597 644.74 365.711 646.017 370.22 648.22C378.843 651.699 390.735 657.264 401.923 666.76ZM386.801 745.721C391.168 744.801 395.339 743.418 398.988 742.209C402.637 740.999 406.088 739.327 409.54 737.654C410.906 736.673 412.992 735.982 414.358 735C415.725 734.019 417.091 733.038 418.458 732.057C421.191 730.094 423.403 728.305 425.614 726.515C430.038 722.936 432.898 719.875 435.434 717.45C436.603 716.006 437.448 715.197 437.772 714.562C438.096 713.926 438.617 713.753 438.617 713.753C438.617 713.753 436.659 713.346 433.461 712.822C430.262 712.298 425.303 711.829 419.301 711.706C416.3 711.644 413.299 711.583 409.776 711.694C406.254 711.806 402.732 711.917 399.209 712.028C398.167 712.374 397.448 712.084 396.406 712.429C395.363 712.775 394.644 712.485 393.602 712.831C391.841 712.886 389.558 713.115 387.797 713.17C383.754 713.455 379.907 714.201 375.54 715.121C367.326 716.788 359.83 718.744 352.73 721.626C345.953 723.873 339.571 727.045 334.556 729.236C329.216 732.063 324.919 734.543 321.989 736.043C319.058 737.543 317.368 739.16 317.368 739.16C317.368 739.16 318.086 739.449 318.805 739.739C319.524 740.029 320.961 740.609 323.116 741.479C326.709 742.929 332.064 744.323 338.46 745.372C339.897 745.952 341.659 745.896 343.617 746.303C345.575 746.711 347.337 746.655 349.295 747.062C353.015 747.413 356.734 747.765 360.975 747.944C362.736 747.888 365.216 748.122 366.977 748.067C369.26 747.838 371.021 747.783 373.303 747.554C378.39 746.924 382.433 746.64 386.801 745.721ZM323.95 642.959C326.374 645.853 328.079 648.457 329.981 651.523C331.094 652.739 331.884 654.59 332.475 655.979C333.067 657.367 334.378 659.045 334.97 660.434C338.056 666.277 340.945 671.658 342.594 676.921C344.765 682.012 346.343 685.714 347.203 689.126C348.387 691.903 348.655 693.927 348.655 693.927C348.655 693.927 346.696 693.52 343.301 692.533C339.905 691.546 335.593 689.806 330.366 687.313C327.492 686.153 325.138 684.82 322.067 683.198C318.995 681.575 316.445 679.78 313.697 677.521C310.949 675.263 307.68 673.178 305.454 670.747C302.509 668.026 300.085 665.132 297.662 662.238C295.238 659.344 293.335 656.277 291.433 653.211C289.531 650.144 288.149 646.904 286.966 644.128C285.584 640.888 284.922 637.939 283.738 635.162C283.075 632.213 282.61 629.726 281.948 626.776C281.017 621.803 281.003 617.582 280.861 614.46C280.72 611.337 281.171 609.603 281.171 609.603C281.171 609.603 282.608 610.183 285.158 611.979C286.595 612.559 288.23 613.602 289.864 614.644C291.499 615.687 293.331 617.193 295.684 618.525C298.037 619.858 299.869 621.363 302.419 623.159C303.335 623.912 304.969 624.954 305.885 625.707C306.604 625.997 306.998 626.923 307.717 627.213C308.436 627.503 308.83 628.428 309.549 628.718C312.099 630.514 314.326 632.945 316.552 635.376C317.665 636.591 318.778 637.807 320.089 639.485C321.723 640.528 322.837 641.744 323.95 642.959ZM290.215 715.941C294.977 715.947 299.021 715.663 302.867 714.916C305.149 714.688 306.713 714.169 308.996 713.941C311.081 713.249 312.842 713.194 314.406 712.675C321.901 710.719 327.959 708.182 332.777 705.529C337.596 702.875 341.893 700.394 344.626 698.432C347.359 696.469 348.725 695.488 348.725 695.488C348.725 695.488 346.57 694.618 343.695 693.458C340.299 692.471 335.988 690.731 330.113 689.51C327.435 688.813 324.237 688.288 320.842 687.301C317.643 686.777 314.248 685.79 310.528 685.438C306.808 685.087 302.891 684.273 299.172 683.921C295.452 683.57 291.211 683.391 286.97 683.212C282.729 683.034 278.686 683.318 274.642 683.602C270.599 683.886 266.555 684.17 263.23 684.744C259.384 685.491 256.059 686.065 252.734 686.639C249.409 687.213 246.281 688.25 243.477 688.652C237.546 690.09 232.854 691.645 229.727 692.682C226.599 693.719 224.514 694.41 224.514 694.41C224.514 694.41 226.345 695.915 229.417 697.538C231.052 698.581 233.207 699.451 235.56 700.783C237.914 702.116 240.788 703.276 243.662 704.436C246.537 705.596 250.13 707.046 253.525 708.033C255.484 708.44 257.118 709.483 259.077 709.89C259.795 710.18 261.035 710.297 261.754 710.587C262.472 710.877 263.712 710.994 264.431 711.284C268.348 712.098 272.786 712.74 276.703 713.554C278.661 713.961 281.141 714.195 282.902 714.14C285.65 716.398 287.932 716.17 290.215 715.941ZM252.71 604.249C253.499 606.1 254.091 607.489 254.88 609.34C255.669 611.191 256.261 612.579 256.853 613.968C258.234 617.207 258.897 620.157 259.757 623.569C260.419 626.518 261.279 629.931 261.942 632.88C262.604 635.83 263.069 638.317 263.732 641.266C264.662 646.239 264.874 650.923 265.537 653.872C265.678 656.995 265.946 659.019 265.946 659.019C265.946 659.019 264.312 657.976 261.24 656.353C259.803 655.773 257.971 654.268 255.815 653.398C253.983 651.892 251.63 650.56 249.277 649.227C244.895 645.926 239.4 641.409 234.947 636.547C232.72 634.116 230.297 631.222 228.394 628.156C226.492 625.089 224.589 622.022 222.49 618.493C220.911 614.791 219.53 611.551 218.67 608.139C217.81 604.727 216.951 601.314 216.288 598.365C215.287 591.83 215.202 586.048 216.032 581.019C216.159 579.921 216.088 578.36 216.215 577.261C216.342 576.163 216.468 575.064 216.595 573.966C216.848 571.769 217.299 570.035 217.947 568.764C218.524 565.932 219.496 564.025 219.496 564.025C219.496 564.025 221.131 565.068 223.16 567.036C225.189 569.004 228.655 571.553 231.995 575.199C233.827 576.705 235.334 578.846 237.363 580.814C239.393 582.782 241.098 585.386 242.606 587.527C244.311 590.131 246.016 592.735 247.918 595.802C249.426 597.943 251.328 601.01 252.71 604.249ZM202.179 668.538C204.137 668.945 206.617 669.179 208.576 669.587C209.816 669.704 210.534 669.994 211.774 670.111C213.014 670.228 213.732 670.518 214.775 670.172C219.016 670.351 223.06 670.067 226.582 669.956C230.104 669.844 233.95 669.097 237.473 668.986C240.798 668.412 244.123 667.838 246.729 666.974C252.661 665.536 256.634 663.691 259.761 662.654C262.889 661.617 264.777 660.463 264.777 660.463C264.777 660.463 263.142 659.42 260.071 657.797C258.436 656.755 256.802 655.712 254.646 654.842C252.49 653.972 250.137 652.639 247.784 651.307C242.557 648.814 236.611 646.032 229.622 643.595C226.029 642.145 222.633 641.158 218.519 639.881C214.602 639.066 210.488 637.789 206.571 636.975C202.654 636.161 198.216 635.519 194.299 634.705C190.579 634.354 186.338 634.175 182.619 633.823C175.18 633.12 168.135 633.343 162.33 633.683C160.569 633.738 159.329 633.621 158.287 633.967C157.047 633.85 155.483 634.368 154.243 634.251C151.96 634.479 149.678 634.708 147.917 634.763C144.592 635.338 142.309 635.566 142.309 635.566C142.309 635.566 143.62 637.244 146.565 639.965C149.51 642.686 153.371 646.16 158.993 649.578C161.543 651.374 164.812 653.459 167.884 655.082C170.956 656.705 174.746 658.617 178.536 660.53C182.326 662.443 185.919 663.893 190.034 665.17C193.429 666.157 197.543 667.434 202.179 668.538ZM191.992 552.543C193.712 559.368 194.192 566.075 194.475 572.32C194.757 578.565 194.321 584.519 194.209 589.838C194.097 595.157 193.069 599.724 192.492 602.556C191.914 605.388 191.661 607.585 191.661 607.585C191.661 607.585 190.026 606.543 187.279 604.284C184.531 602.026 181.389 598.842 177.852 594.733C173.794 590.796 170.186 585.126 167.1 579.282C166.508 577.894 165.197 576.216 164.605 574.827C164.014 573.439 163.224 571.588 162.435 569.737C161.054 566.497 160.194 563.085 159.137 559.21C158.869 557.186 158.277 555.797 158.009 553.773C157.741 551.749 157.671 550.188 157.6 548.627C157.261 545.042 157.641 541.747 158.021 538.452C158.26 532.034 159.936 526.197 162.007 521.285C163.556 516.546 165.5 512.732 166.796 510.19C168.091 507.647 169.261 506.203 169.261 506.203C169.261 506.203 173.714 511.066 178.505 519.513C180.802 523.505 183.494 528.423 185.861 533.976C188.75 539.357 190.794 545.546 191.992 552.543ZM126.61 604.325C135.233 607.805 143.264 609.896 150.38 611.235C158.016 612.4 165.061 612.178 171.063 612.301C176.868 611.961 181.433 611.504 185.279 610.757C188.604 610.183 190.689 609.492 190.689 609.492C190.689 609.492 189.576 608.277 186.828 606.018C184.602 603.587 180.938 600.576 176.556 597.275C172.174 593.974 166.876 589.92 160.535 586.212C158.901 585.17 157.266 584.127 155.829 583.547C154.194 582.504 152.56 581.461 150.925 580.419C147.656 578.333 144.063 576.883 139.752 575.143C137.596 574.274 136.159 573.694 134.003 572.824C131.847 571.954 130.41 571.374 128.254 570.504C124.662 569.054 120.745 568.24 117.152 566.79C108.599 564.871 102.005 563.36 96.1298 562.139C90.2544 560.917 85.2949 560.449 81.5753 560.097C77.8557 559.746 76.0945 559.801 76.0945 559.801C76.0945 559.801 80.4913 567.323 88.6783 576.757C93.1311 581.619 98.8238 586.599 105.038 591.405C111.252 596.212 118.508 600.673 126.61 604.325ZM145.265 490.39C144.885 493.685 144.702 497.443 144.322 500.738C143.942 504.033 143.562 507.328 142.985 510.16C141.506 516.461 139.83 522.298 138.281 527.037C136.732 531.777 134.985 536.053 133.886 539.058C132.788 542.063 131.619 543.507 131.619 543.507C131.619 543.507 130.505 542.292 128.082 539.398C126.968 538.182 125.658 536.504 124.869 534.653C124.474 533.727 123.558 532.974 122.966 531.586C122.572 530.661 121.98 529.272 120.867 528.057C119.88 525.743 118.175 523.139 116.991 520.362C115.807 517.585 114.426 514.346 113.764 511.396C112.904 507.984 112.044 504.572 111.903 501.45C111.832 499.888 111.564 497.864 111.493 496.303C111.423 494.742 111.155 492.718 111.605 490.984C111.788 487.226 112.168 483.931 113.069 480.463C113.971 476.995 114.548 474.163 115.449 470.695C117.646 464.685 120.76 459.427 123.027 454.978C124.521 452.898 125.493 450.991 127.183 449.375C128.352 447.931 129.522 446.487 130.691 445.043C132.705 442.79 133.875 441.346 133.875 441.346C133.875 441.346 134.466 442.735 135.65 445.511C136.834 448.288 138.215 451.527 139.667 456.328C140.654 458.642 141.119 461.129 141.584 463.616C142.049 466.102 143.233 468.879 143.374 472.001C144.037 474.951 144.178 478.073 144.32 481.195C145.306 483.509 145.447 486.632 145.265 490.39ZM68.6091 526.894C72.0754 529.442 75.8656 531.355 79.6559 533.267C83.4462 535.18 87.0391 536.63 90.6321 538.08C97.6207 540.517 104.412 542.491 110.09 543.249C115.768 544.008 120.728 544.477 124.25 544.365C127.772 544.254 129.533 544.198 129.533 544.198C129.533 544.198 128.744 542.347 126.518 539.916C125.405 538.701 124.615 536.85 122.784 535.344C121.868 534.591 121.473 533.666 120.36 532.45C119.444 531.697 118.852 530.309 117.739 529.094C116.231 526.952 114.005 524.521 111.778 522.09C109.552 519.659 106.804 517.401 104.578 514.97C102.351 512.539 99.4063 509.818 96.6586 507.559C95.0241 506.517 93.7136 504.838 92.0791 503.796C90.4446 502.753 88.6128 501.247 86.9783 500.205C83.5121 497.656 80.2431 495.571 76.9741 493.485C73.7051 491.4 69.9149 489.487 66.8432 487.865C59.9813 484.329 53.514 481.72 47.9625 479.863C45.0882 478.703 42.4111 478.006 40.2553 477.136C38.0996 476.266 36.1411 475.859 33.9853 474.989C30.5897 474.002 28.6312 473.595 28.6312 473.595C28.6312 473.595 29.4204 475.446 30.2803 478.858C31.6615 482.097 33.8318 487.188 37.2421 492.396C38.9472 495 40.8496 498.066 42.5548 500.67C44.4572 503.737 46.8809 506.631 49.3046 509.525C51.7283 512.419 54.8706 515.602 57.8156 518.323C61.4792 521.335 65.1428 524.346 68.6091 526.894ZM113.513 420.102C112.612 423.57 111.513 426.575 110.414 429.58C109.316 432.586 107.696 435.764 106.597 438.769C103.682 444.489 101.09 449.574 98.3006 454.196C96.8073 456.275 95.3141 458.355 94.3422 460.262C93.3703 462.169 92.201 463.613 91.0318 465.057C89.2146 467.772 87.8481 468.753 87.8481 468.753C87.8481 468.753 87.0588 466.902 85.3537 464.298C84.1699 461.521 82.3941 457.356 81.2663 451.92C80.8011 449.433 79.6172 446.656 79.476 443.534C78.8134 440.585 78.6721 437.462 78.3335 433.877C78.1923 430.755 78.375 426.997 78.755 423.702C79.135 420.407 79.839 416.476 80.7403 413.008C81.6416 409.54 82.5429 406.072 84.1628 402.894C85.7826 399.716 87.5998 397.001 89.417 394.286C93.0514 388.855 96.5591 384.523 100.785 380.481C104.688 377.075 108.266 374.304 110.478 372.514C113.211 370.552 114.578 369.571 114.578 369.571C114.578 369.571 115.169 370.959 115.832 373.909C115.903 375.47 116.495 376.858 116.763 378.882C116.636 379.981 117.03 380.906 116.904 382.004C117.298 382.93 117.172 384.028 117.045 385.127C117.313 387.151 117.257 389.81 117.201 392.47C117.145 395.129 117.089 397.789 117.23 400.911C117.174 403.571 116.794 406.866 116.414 410.161C115.963 411.895 116.034 413.456 115.583 415.19C114.414 416.634 113.964 418.368 113.513 420.102ZM29.233 440.119C32.3753 443.303 35.3203 446.024 38.2653 448.745C41.2103 451.466 44.4793 453.551 47.7483 455.637C54.2862 459.808 60.7535 462.417 65.7837 464.447C68.658 465.607 70.8138 466.477 73.4909 467.174C75.6466 468.044 77.6051 468.451 79.5635 468.858C82.9592 469.845 84.7203 469.79 84.7203 469.79C84.7203 469.79 83.9311 467.939 82.7473 465.162C81.5634 462.385 79.7877 458.22 77.096 453.302C76.1095 450.988 74.4044 448.385 72.6993 445.781C70.9941 443.177 69.613 439.937 67.3866 437.506C65.4841 434.44 63.0604 431.546 60.6367 428.652C58.213 425.758 55.7893 422.864 53.1683 419.507C50.7446 416.614 47.6022 413.43 44.8546 411.171C41.9096 408.45 39.1619 406.192 36.2169 403.471C30.7215 398.955 24.1835 394.784 19.8014 391.483C14.8979 388.354 10.1917 385.689 7.12007 384.066C4.0484 382.444 1.89262 381.574 1.89262 381.574C1.89262 381.574 2.16058 383.598 2.49915 387.183C2.76709 389.207 3.03504 391.231 3.50028 393.717C3.8949 394.643 3.96553 396.204 4.55745 397.593C5.14937 398.981 5.22001 400.542 5.81193 401.93C6.47449 404.88 7.85563 408.119 9.23677 411.359C10.6179 414.598 11.9991 417.838 14.0988 421.367C16.8465 423.626 18.9462 427.155 21.5673 430.512C22.8778 432.19 24.1883 433.868 25.4988 435.547C26.612 436.762 27.9225 438.441 29.233 440.119ZM99.2315 346.136C98.0622 347.58 97.6116 349.314 96.4423 350.758C95.7944 352.029 94.6251 353.473 93.4559 354.917C91.6387 357.632 89.8215 360.347 87.2857 362.773C82.9328 367.913 78.9037 372.418 75.0014 375.824C71.2964 379.693 67.7181 382.464 65.1823 384.889C62.4492 386.852 61.0826 387.833 61.0826 387.833C61.0826 387.833 59.1656 380.546 58.3472 370.253C58.4592 364.934 58.8953 358.979 59.6553 352.389C61.1339 346.089 63.4578 338.98 66.6976 332.624C70.4586 326.095 74.8116 320.955 79.8832 316.105C85.1521 311.717 90.097 307.965 94.3939 305.484C99.2121 302.83 103.185 300.985 106.115 299.485C109.243 298.449 110.807 297.93 110.807 297.93C110.807 297.93 110.878 299.491 110.822 302.151C110.766 304.81 110.583 308.568 109.555 313.135C108.527 317.701 107.696 322.73 106.02 328.568C105.372 329.839 104.922 331.573 104.274 332.844C103.626 334.115 103.175 335.849 102.527 337.12C102.669 340.243 101.049 343.421 99.2315 346.136ZM11.6948 348.745C12.484 350.597 13.7946 352.275 15.1051 353.953C16.4156 355.632 17.7261 357.31 19.0366 358.988C21.4603 361.882 23.884 364.776 26.829 367.497C32.0004 372.649 37.8198 376.53 42.7232 379.658C47.6267 382.786 52.1356 384.989 55.2072 386.612C58.2789 388.234 60.2374 388.642 60.2374 388.642C60.2374 388.642 59.5602 381.471 56.7833 370.772C55.6555 365.335 53.8091 359.609 51.5681 352.957C49.3271 346.306 46.3675 339.364 42.3653 332.768C38.8844 325.999 33.8397 319.748 29.5136 313.788C25.1874 307.827 20.2133 303.138 16.1551 299.201C12.0969 295.265 8.23602 291.791 5.48833 289.533C2.74064 287.274 1.10616 286.232 1.10616 286.232C1.10616 286.232 0.852809 288.428 0.472799 291.723C0.290098 295.481 -0.0192824 300.338 0.263263 306.582C0.348499 312.364 1.74425 319.824 3.66128 327.112C3.92922 329.136 4.71845 330.987 5.31037 332.375C6.09959 334.226 6.88882 336.077 7.67805 337.929C7.81933 341.051 9.39777 344.753 11.6948 348.745ZM103.28 271.903C100.744 274.328 98.4059 277.216 95.6728 279.179C93.1371 281.604 90.404 283.566 87.6709 285.529C82.2047 289.454 77.2598 293.206 72.4416 295.859C70.0325 297.186 67.6233 298.513 65.7355 299.667C63.8477 300.821 61.9599 301.975 60.396 302.493C57.4656 303.993 55.9017 304.512 55.9017 304.512C55.9017 304.512 55.8311 302.95 56.2111 299.655C56.0699 296.533 57.0978 291.967 57.9285 286.937C58.5058 284.105 59.2804 281.736 59.8577 278.903C60.9563 275.898 62.055 272.893 63.3509 270.35C64.9707 267.173 66.0693 264.167 68.4078 261.279C70.7463 258.391 72.5635 255.676 75.4233 252.615C76.5925 251.171 77.9591 250.19 79.1283 248.746C79.9736 247.938 80.4948 247.765 81.3401 246.957C82.1854 246.148 82.7066 245.975 83.5519 245.167C86.285 243.204 89.5394 241.069 92.2724 239.107C95.2028 237.607 98.1332 236.107 101.064 234.608C103.994 233.108 106.6 232.244 109.207 231.38C114.42 229.652 118.787 228.732 122.112 228.158C125.437 227.584 127.198 227.528 127.198 227.528C127.198 227.528 126.748 229.262 125.973 231.632C125.325 232.903 124.875 234.637 124.424 236.371C123.973 238.105 123.001 240.012 122.227 242.381C120.48 246.658 117.888 251.743 115.099 256.365C113.803 258.907 111.986 261.622 109.972 263.875C107.633 266.763 105.097 269.188 103.28 271.903ZM16.3331 256.359C17.3903 260.234 18.9687 263.936 21.0685 267.465C22.6469 271.168 24.5493 274.234 26.4518 277.301C30.7779 283.262 34.7094 288.297 38.7676 292.233C39.8808 293.449 40.7967 294.201 41.7126 294.954C42.6285 295.707 43.5444 296.46 44.4603 297.212C46.2921 298.718 47.9266 299.761 49.0398 300.976C51.7875 303.234 53.422 304.277 53.422 304.277C53.422 304.277 53.8726 302.543 53.7314 299.421C53.5901 296.299 54.0968 291.905 54.2089 286.586C54.2649 283.926 54.1236 280.804 53.9823 277.682C53.8411 274.559 53.6998 271.437 53.3612 267.852C53.0226 264.267 52.1628 260.855 51.8242 257.27C50.9643 253.857 50.4285 249.809 48.85 246.107C48.0608 244.256 47.7928 242.232 47.0036 240.381C46.2144 238.53 45.4252 236.679 44.8332 235.29C43.4521 232.051 41.8736 228.348 40.4925 225.109C39.1113 221.869 37.2089 218.803 35.5038 216.199C33.7987 213.595 32.6148 210.818 30.9097 208.214C27.6968 203.469 24.8784 199.65 22.976 196.583C20.7496 194.152 19.4391 192.474 19.4391 192.474C19.4391 192.474 18.4672 194.381 17.5659 197.849C17.1152 199.583 16.1433 201.489 15.3687 203.859C14.594 206.229 14.0167 209.061 13.4394 211.893C12.482 218.021 11.722 224.611 11.3566 232.127C11.6952 235.712 11.7098 239.933 12.2457 243.981C14.5427 247.973 15.0786 252.021 16.3331 256.359ZM124.56 200.409C121.827 202.371 118.376 204.044 115.643 206.006C112.712 207.506 109.261 209.178 106.33 210.678C103.4 212.177 100.272 213.214 97.3417 214.714C94.214 215.751 91.8048 217.078 89.1984 217.942C83.9856 219.67 79.294 221.225 75.969 221.799C72.8413 222.836 70.5589 223.065 70.5589 223.065C70.5589 223.065 71.0095 221.331 72.1081 218.325C72.5588 216.591 73.0094 214.857 73.9813 212.951C74.9533 211.044 75.7279 208.674 77.0238 206.132C78.3197 203.59 79.6156 201.047 81.1088 198.968C81.7568 197.696 82.926 196.252 83.574 194.981C83.898 194.346 84.222 193.71 85.0672 192.902C85.3912 192.266 86.2365 191.458 86.5604 190.822C88.3776 188.107 90.9134 185.682 93.4492 183.256C94.6184 181.812 95.985 180.831 97.3515 179.85C98.7181 178.869 100.606 177.715 101.972 176.733C105.227 174.598 108.678 172.926 111.609 171.426C113.173 170.908 115.061 169.754 116.624 169.235C118.188 168.717 119.752 168.198 121.837 167.507C128.614 165.261 134.743 164.285 140.35 163.483C145.958 162.68 150.72 162.686 153.721 162.748C156.722 162.809 159.202 163.043 159.202 163.043C159.202 163.043 158.554 164.315 157.258 166.857C155.765 168.937 153.623 172.287 151.158 176.274C149.665 178.353 147.974 179.97 146.481 182.05C144.988 184.129 142.974 186.382 140.762 188.171C138.747 190.424 136.014 192.386 134 194.639C130.548 196.311 127.815 198.273 124.56 200.409ZM43.3598 167.642C43.8956 171.69 44.2342 175.275 44.7701 179.323C45.8273 183.198 46.6871 186.61 48.0683 189.85C49.4494 193.089 50.8306 196.329 52.0144 199.105C53.1982 201.882 54.9034 204.486 56.6085 207.09C59.8214 211.835 62.6398 215.654 64.8662 218.085C67.0926 220.516 68.2058 221.732 68.2058 221.732C68.2058 221.732 68.6564 219.998 69.755 216.993C70.403 215.722 70.6563 213.525 71.6283 211.618C71.8816 209.421 72.6562 207.052 73.4309 204.682C74.2055 202.313 74.7828 199.48 75.1628 196.185C75.6135 194.451 75.7401 193.353 76.1908 191.619C76.5147 190.983 76.1201 190.058 76.4441 189.422C76.7681 188.786 76.8948 187.688 76.6975 187.225C77.0775 183.93 77.4575 180.635 77.6402 176.877C77.5696 175.316 77.8229 173.119 77.5549 171.095C77.287 169.071 77.7377 167.337 77.4697 165.313C77.1311 161.728 76.5953 157.68 76.2567 154.095C75.9887 152.071 75.9181 150.51 75.1289 148.659C74.8609 146.635 74.269 145.247 74.1984 143.685C72.4786 136.861 70.9562 130.499 68.7858 125.408C67.1368 120.145 65.1637 115.517 63.9799 112.74C62.5987 109.501 62.0068 108.113 62.0068 108.113C62.0068 108.113 60.8375 109.557 58.6964 112.907C56.3579 115.795 54.0901 120.245 51.6955 125.792C50.3996 128.334 49.301 131.34 47.8785 134.98C46.7799 137.986 45.8786 141.453 45.1746 145.384C44.2733 148.852 43.5693 152.783 43.3866 156.541C43.0066 159.836 43.0212 164.057 43.3598 167.642ZM163.087 135.874C156.508 138.583 149.731 140.83 142.56 142.151C136.107 143.762 129.457 144.91 123.652 145.25C118.045 146.052 113.282 146.046 109.957 146.62C106.435 146.732 104.674 146.787 104.674 146.787C104.674 146.787 104.998 146.152 105.322 145.516C105.646 144.881 106.294 143.609 106.942 142.338C108.759 139.623 111.421 136.099 114.408 131.94C121.099 123.912 132.285 113.865 146.486 108.101C149.938 106.429 153.784 105.682 157.631 104.935C161.477 104.188 164.802 103.614 168.127 103.04C169.888 102.984 171.452 102.466 173.213 102.41C174.974 102.354 176.735 102.299 177.975 102.416C180.976 102.477 183.977 102.539 186.978 102.6C192.459 102.896 197.095 104 200.293 104.525C201.73 105.105 202.97 105.222 204.21 105.339C204.929 105.629 205.647 105.919 205.647 105.919C205.647 105.919 204.478 107.363 202.787 108.98C200.773 111.232 198.237 113.657 194.137 116.601C192.447 118.218 190.235 120.007 187.826 121.334C185.614 123.124 183.205 124.451 180.472 126.413C179.951 126.586 179.105 127.394 178.584 127.567C178.063 127.74 177.218 128.548 176.696 128.721C175.33 129.702 173.766 130.221 172.399 131.202C169.666 133.165 166.539 134.201 163.087 135.874ZM90.7042 87.507C89.2963 95.3685 89.6494 103.174 90.3266 110.345C91.0038 117.515 93.0475 123.704 94.6966 128.967C96.3456 134.231 98.6427 138.223 99.8265 141C101.532 143.603 102.321 145.455 102.321 145.455C102.321 145.455 102.645 144.819 102.969 144.183C103.293 143.548 103.941 142.277 105.11 140.833C106.927 138.117 109.392 134.131 111.66 129.682C116.52 120.148 122.281 107.146 125.294 91.8859C125.998 87.9552 126.378 84.6601 127.082 80.7293C127.265 76.9714 127.645 73.6763 127.827 69.9183C127.757 68.3572 127.489 66.3332 127.94 64.5993C127.869 63.0381 127.798 61.4769 127.728 59.9158C127.586 56.7934 127.445 53.6711 126.98 51.1844C126.373 45.5753 125.64 41.0647 124.78 37.6524C124.71 36.0912 124.118 34.7029 123.723 33.7773C123.328 32.8517 123.131 32.3889 123.131 32.3889C123.131 32.3889 122.61 32.5617 121.765 33.3702C120.919 34.1786 120.074 34.987 118.905 36.431C116.369 38.8562 112.664 42.7254 108.832 47.693C106.818 49.9454 105.001 52.6606 103.381 55.8386C101.761 59.0165 100.141 62.1945 97.9999 65.5453C97.6759 66.1809 97.0279 67.4521 96.7039 68.0877C96.38 68.7233 95.732 69.9945 95.408 70.6301C94.4361 72.5368 93.9855 74.2708 93.5348 76.0048C92.3095 80.1083 91.4082 83.5763 90.7042 87.507ZM166.512 32.2689C163.652 35.3297 161.511 38.6805 159.173 41.5685C158.004 43.0125 157.032 44.9193 156.384 46.1905C155.412 48.0973 154.764 49.3684 154.313 51.1024C151.595 57.2856 149.397 63.2959 148.243 68.9606C146.891 74.1625 147.103 78.846 146.525 81.6784C146.667 84.8007 146.216 86.5347 146.216 86.5347C146.216 86.5347 148.301 85.8434 151.232 84.3438C152.598 83.3625 154.683 82.6713 156.571 81.5173C158.459 80.3632 160.868 79.0364 163.277 77.7096C168.095 75.0559 173.562 71.131 178.83 66.7434C181.564 64.7809 184.621 62.1829 187.156 59.7577C188.002 58.9493 188.326 58.3137 189.368 57.9681C190.213 57.1597 190.537 56.5241 191.58 56.1784C192.749 54.7344 194.637 53.5804 195.806 52.1364C198.666 49.0756 201.005 46.1876 203.343 43.2996C205.682 40.4116 208.02 37.5236 209.64 34.3456C213.598 28.2796 216.514 22.5593 219.106 17.4745C221.698 12.3898 223.444 8.11341 224.543 5.10825C224.599 2.44871 225.05 0.714724 225.05 0.714724C225.05 0.714724 222.767 0.943181 219.118 2.15287C217.357 2.20851 215.272 2.89976 212.665 3.76381C210.059 4.62787 207.453 5.49192 204.522 6.99158C201.394 8.02844 198.464 9.52809 195.012 11.2005C193.646 12.1818 191.561 12.873 190.194 13.8542C188.828 14.8354 186.94 15.9895 185.573 16.9707C178.867 20.7784 172.034 25.6845 166.512 32.2689ZM563.57 664.936C578.195 668.538 591.397 675.782 600.81 681.113C605.516 683.778 609.701 686.616 612.251 688.412C614.801 690.207 616.633 691.713 616.633 691.713C616.633 691.713 609.533 694.595 598.515 696.663C592.908 697.465 586.06 698.151 579.016 698.373C575.493 698.485 571.774 698.133 567.857 697.319C564.137 696.967 560.22 696.153 556.106 694.876C554.147 694.469 552.189 694.062 550.555 693.019C548.596 692.612 546.962 691.569 545.524 690.989C541.931 689.539 538.86 687.917 535.788 686.294C534.154 685.251 532.716 684.671 531.603 683.456C529.969 682.413 529.053 681.66 527.418 680.618C524.868 678.822 522.839 676.854 520.81 674.886C516.949 671.412 513.609 667.765 512.101 665.624C509.875 663.193 509.283 661.805 509.283 661.805C509.283 661.805 509.804 661.632 510.326 661.459C510.847 661.286 512.087 661.403 513.651 660.885C516.454 660.484 520.498 660.199 525.782 660.032C528.261 660.267 531.065 659.866 534.066 659.927C537.067 659.989 540.068 660.05 543.266 660.574C546.465 661.099 549.466 661.16 553.383 661.974C556.257 663.134 559.653 664.121 563.57 664.936Z" fill="#F5F5F5"/>
</svg>
