<svg width="116" height="80" viewBox="0 0 116 80" fill="none" xmlns="http://www.w3.org/2000/svg">
<path d="M25.5224 27.0519C25.8648 26.2919 26.1912 25.5759 26.512 24.8567C26.836 24.1311 27.1712 23.4087 27.4712 22.6735C27.6368 22.2679 27.9088 22.1055 28.332 22.0719C29.3064 21.9943 30.196 22.2615 31.0008 22.7639C32.2808 23.5639 33.528 24.4167 34.7888 25.2463C34.8656 25.2967 34.9464 25.3415 35.1008 25.4343C35.1008 23.4975 35.1008 21.6367 35.1008 19.7103C35.3944 19.6807 35.6432 19.6247 35.8872 19.6375C36.9776 19.6943 37.996 20.0119 38.9472 20.5455C39.544 20.8807 40.0672 21.2727 39.9296 22.1695C40.2616 22.1695 40.5312 22.1695 40.8 22.1695C62.8176 22.1695 84.8352 22.1735 106.853 22.1591C108.075 22.1583 109.162 22.4847 110.178 23.1223C110.312 23.2071 110.479 23.2775 110.561 23.4007C110.758 23.6999 110.913 24.0255 111.085 24.3407C110.781 24.4351 110.477 24.6111 110.173 24.6127C106.57 24.6319 102.969 24.6247 99.3296 24.7151C99.4712 24.7855 99.6104 24.8631 99.756 24.9255C101.645 25.7279 103.508 26.5847 105.14 27.8495C105.765 28.3335 106.358 28.8847 106.865 29.4895C108.251 31.1423 108.426 32.9975 107.618 34.9687C107.543 35.1503 107.455 35.3271 107.364 35.5271C107.462 35.6103 107.548 35.6895 107.64 35.7591C108.418 36.3511 108.422 36.4839 107.716 37.1055C107.554 37.2487 107.418 37.4247 107.283 37.5959C106.333 38.8071 105.102 39.3431 103.603 38.9343C102.595 38.6591 101.608 38.2639 100.663 37.8143C99.8976 37.4495 99.9416 37.1623 100.457 36.4967C101.258 35.4631 102.122 34.4463 102.725 33.2983C103.942 30.9815 103.29 28.8631 101.05 27.5279C100.158 26.9959 99.184 26.6007 98.092 26.0671C98.092 26.5231 98.092 26.7503 98.092 26.9783C98.092 34.0255 98.092 41.0727 98.092 48.1199C98.092 48.9031 98.0264 48.9871 97.264 48.9967C92.488 49.0599 88.0536 47.8639 84.0032 45.3231C82.3912 44.3119 81.0808 42.9927 80.2728 41.2343C79.1304 38.7487 79.4056 36.3911 80.9856 34.1919C82.3576 32.2831 84.1224 30.7527 85.9464 29.3007C87.736 27.8759 89.5792 26.5175 91.3976 25.1279C91.5528 25.0095 91.6984 24.8791 91.9424 24.6751C83.6472 24.6751 75.468 24.6751 67.2688 24.6751C67.2536 24.8367 67.2304 24.9727 67.2296 25.1087C67.2272 27.9751 67.236 30.8423 67.2184 33.7087C67.216 34.1175 67.3592 34.2439 67.7392 34.3143C69.7288 34.6807 71.6248 35.3535 73.3832 36.3391C74.272 36.8375 75.1232 37.4719 75.8432 38.1935C78.4216 40.7791 76.4664 44.0311 73.744 44.6487C71.9864 45.0479 70.396 44.5879 68.984 43.4871C68.86 43.3903 68.7256 43.2815 68.6544 43.1479C68.5664 42.9823 68.4536 42.7487 68.5112 42.6111C68.5632 42.4863 68.824 42.3967 69.0008 42.3823C70.5184 42.2607 71.6352 41.3935 72.1112 39.9407C72.4872 38.7919 72.1248 37.6943 71.0784 37.1103C69.9184 36.4631 68.6432 36.1839 67.2288 36.1223C67.2288 36.3951 67.2288 36.6263 67.2288 36.8575C67.2288 40.6999 67.2288 44.5415 67.2288 48.3839C67.2288 49.1599 67.1632 49.2415 66.372 49.1975C65.224 49.1343 64.1392 48.8335 63.1512 48.2263C62.648 47.9167 62.3784 47.5151 62.3344 46.8759C62.2008 44.9463 61.396 43.3263 59.7408 42.2687C58.6936 41.5999 57.5448 41.0887 56.3912 40.4815C56.2712 40.7447 56.2 40.8999 56.1288 41.0559C55.8648 41.6343 55.6304 42.2287 55.332 42.7879C54.4528 44.4367 53.8168 44.6495 52.1104 43.9119C51.9648 43.8487 51.8256 43.7695 51.6808 43.7055C50.4248 43.1535 49.6 42.3031 49.5432 40.8359C49.4984 39.6855 49.38 38.5375 49.2808 37.3903C49.2328 36.8399 49.508 36.6647 49.996 36.7423C50.6616 36.8471 51.3224 36.9759 52.0416 37.1047C52.5896 36.1927 52.8664 35.1703 52.8376 34.0831C52.8312 33.8527 52.6024 33.5623 52.3944 33.4143C51.7872 32.9815 51.1384 32.6071 50.48 32.1935C49.8152 33.3807 49.2128 34.4727 48.5928 35.5551C48.1864 36.2647 47.796 36.4839 47.0192 36.2447C46.1168 35.9663 45.2408 35.5895 44.3824 35.1911C43.8264 34.9327 43.5368 34.4287 43.5024 33.7975C43.4224 32.3287 43.3256 30.8599 43.26 29.3903C43.232 28.7639 43.456 28.5727 44.0872 28.6567C44.5792 28.7223 45.0808 28.7871 45.5472 28.9447C46.1336 29.1431 46.4416 28.9519 46.5896 28.3959C46.7568 27.7695 47.0056 27.1479 47.0568 26.5111C47.1136 25.8087 46.7488 25.5559 46.1112 25.2519C44.14 24.3111 42.0672 24.7127 39.948 24.6151C39.948 24.9519 39.948 25.2047 39.948 25.4575C39.948 33.0423 39.948 40.6271 39.948 48.2119C39.948 49.3543 39.9296 49.4383 38.7848 49.1855C37.7912 48.9663 36.8272 48.5735 35.8864 48.1719C35.3216 47.9303 35.1 47.4191 35.1032 46.7575C35.1256 42.0791 35.1328 37.4007 35.1088 32.7231C35.0952 30.0359 34.024 27.7887 32.0984 25.9351C32.0448 25.8831 31.976 25.8471 31.8616 25.7671C30.9856 27.6255 30.1256 29.4503 29.2888 31.2247C30.0456 31.8343 30.78 32.3767 31.4576 32.9831C32.4232 33.8463 32.7344 34.8639 32.0728 36.0815C31.8664 36.4615 31.7512 36.8927 31.608 37.3047C31.392 37.9239 30.9728 38.2447 30.308 38.2335C28.7056 38.2063 27.3408 37.5727 26.1168 36.5871C25.7624 36.3015 25.4224 35.9967 25.0488 35.6775C24.6312 36.2863 24.232 36.8519 23.8504 37.4287C22.9112 38.8503 21.8848 39.2631 20.2824 38.7223C19.4808 38.4519 18.7104 38.0583 17.9776 37.6319C17.7216 37.4831 17.4776 37.0727 17.4712 36.7759C17.4272 34.7887 17.4536 32.7999 17.444 30.8111C17.4416 30.3007 17.7192 30.0847 18.1576 30.1991C18.9792 30.4127 19.7832 30.6943 20.5896 30.9631C20.832 31.0439 21.0568 31.1759 21.2888 31.2847C22.5208 28.7007 21.5008 24.7663 17.9272 24.6111C16.6624 24.5567 15.3936 24.6023 14.0472 24.6023C14.0472 24.9439 14.0472 25.1967 14.0472 25.4487C14.0472 35.1439 14.0472 46.9479 14.0472 56.6431C14.0472 57.5751 13.9672 57.7031 13.0664 57.4951C12.1064 57.2743 11.1712 56.9271 10.2472 56.5775C9.51521 56.2999 9.25281 55.7271 9.25441 54.9247C9.27441 45.8071 9.26721 34.5799 9.26721 25.4623C9.26721 25.2087 9.26721 24.9543 9.26721 24.7055C8.61041 24.6247 7.98001 24.6631 7.44721 24.4543C6.62961 24.1335 5.85841 23.6743 5.11201 23.2023C4.91921 23.0799 4.89281 22.6935 4.79041 22.4279C5.04001 22.3431 5.28721 22.1911 5.53921 22.1839C6.60481 22.1567 7.67041 22.1719 8.80801 22.1719C8.73201 22.0167 8.71121 21.9415 8.66641 21.8871C5.61041 18.1543 6.08561 13.2039 9.92401 9.65432C11.82 7.90072 14.1112 7.04792 16.624 6.65992C19.968 6.14392 23.1984 6.55992 26.3544 7.73752C30.0512 9.11752 33.4912 10.9599 36.5976 13.3991C36.8872 13.6263 37.2664 14.1191 37.1904 14.3543C37.0328 14.8383 36.4592 14.7159 36.0352 14.6511C34.7704 14.4583 33.6456 13.9471 32.652 13.1295C30.6976 11.5207 28.5184 10.3079 26.1248 9.48072C21.656 7.93592 15.976 9.56312 13.296 13.1967C11.3552 15.8295 10.9288 18.6519 12.3792 21.6695C12.556 22.0383 12.7728 22.1831 13.1984 22.1815C14.768 22.1727 16.348 22.1127 17.9064 22.2559C20.8928 22.5295 23.0624 24.2767 24.9552 26.4439C25.0992 26.6087 25.2344 26.7807 25.3744 26.9487C25.3872 26.9631 25.4072 26.9719 25.5224 27.0519ZM93.1984 29.4735C93.1392 29.4303 93.08 29.3863 93.02 29.3431C90.908 31.1815 88.7528 32.9727 86.708 34.8831C86.0016 35.5423 85.4472 36.4391 85.0384 37.3263C84.0288 39.5191 84.1672 41.6975 85.6936 43.6183C87.5968 46.0151 90.304 46.5079 93.1992 46.6055C93.1984 40.8383 93.1984 35.1559 93.1984 29.4735ZM49.1016 24.6503C52.1104 26.3671 52.5168 28.4215 51.3048 30.6543C51.3656 30.6975 51.4224 30.7567 51.4912 30.7855C53.404 31.5767 55.1008 32.7055 56.6512 34.0671C57.3464 34.6775 57.816 35.3871 57.6296 36.3599C57.4624 37.2295 57.256 38.0911 57.0736 38.9247C58.816 39.7663 60.5752 40.6159 62.3648 41.4799C62.3648 39.4063 62.372 37.3399 62.348 35.2735C62.3464 35.1311 62.1352 34.9231 61.976 34.8607C60.8304 34.4111 59.636 34.0679 58.5296 33.5399C57.3544 32.9791 56.1888 32.3463 55.148 31.5711C54.0512 30.7543 53.7136 29.5431 54.1352 28.2031C54.5496 26.8847 55.3976 25.8751 56.492 25.0575C56.636 24.9495 56.776 24.8359 57.0112 24.6511C54.3272 24.6503 51.7912 24.6503 49.1016 24.6503ZM62.3384 26.5431C60.588 27.0455 59.0008 28.9303 58.8296 30.6863C58.7728 31.2711 58.9968 31.7431 59.4552 32.0871C60.3032 32.7231 61.3256 32.8479 62.3384 33.0887C62.3384 30.8607 62.3384 28.7055 62.3384 26.5431Z" fill="url(#paint0_linear_1979_331)"/>
<path d="M53.468 53.3959C52.5272 53.3959 51.6552 53.3959 50.7288 53.3959C50.7288 53.5895 50.7288 53.7551 50.7288 53.9199C50.7288 58.8815 50.7288 63.8423 50.7288 68.8039C50.7288 69.4503 50.6912 69.4943 50.0464 69.4951C46.8576 69.4999 43.8824 68.7303 41.2024 66.9719C40.6504 66.6095 40.1504 66.1447 39.6976 65.6615C38.1456 64.0055 38.1256 61.5791 39.6192 59.8015C40.6048 58.6287 41.8112 57.7055 43.0456 56.8183C44.448 55.8103 45.86 54.8159 47.264 53.8111C47.3792 53.7287 47.468 53.6079 47.5688 53.5047C47.5552 53.4703 47.5416 53.4367 47.528 53.4023C47.38 53.3951 47.2328 53.3815 47.0848 53.3815C44.2176 53.3799 41.3512 53.3759 38.484 53.3831C37.6928 53.3855 36.9984 53.1239 36.3624 52.6791C36.236 52.5903 36.108 52.4815 36.0296 52.3527C35.9552 52.2303 35.888 52.0527 35.9248 51.9311C35.9496 51.8487 36.1552 51.8007 36.2872 51.7775C36.44 51.7503 36.6 51.7647 36.7576 51.7647C60.6216 51.7647 84.4856 51.7655 108.349 51.7583C109.15 51.7583 109.871 51.9543 110.535 52.3863C110.666 52.4711 110.812 52.5623 110.891 52.6879C110.989 52.8423 111.024 53.0367 111.086 53.2135C110.922 53.2687 110.758 53.3687 110.593 53.3711C109.638 53.3863 108.683 53.3783 107.654 53.3783C107.654 53.5655 107.654 53.7287 107.654 53.8911C107.654 58.9439 107.654 63.9967 107.654 69.0495C107.654 69.5999 107.603 69.6847 107.078 69.5575C106.361 69.3839 105.655 69.1495 104.963 68.8903C104.562 68.7399 104.418 68.3943 104.408 67.9455C104.386 66.9151 104.366 65.8783 104.23 64.8599C104.158 64.3215 103.91 63.7759 103.627 63.3023C102.563 61.5191 101.181 60.0087 99.532 58.7447C99.4824 58.7071 99.4272 58.6775 99.3224 58.6119C99.3224 59.3071 99.3568 59.9543 99.316 60.5975C99.2112 62.2231 98.6536 63.7039 97.8096 65.0879C97.6248 65.3903 97.3608 65.4791 97.0432 65.4407C96.2056 65.3399 95.4592 65.0111 94.7944 64.4951C94.5256 64.2871 94.5008 64.0807 94.6624 63.7551C94.9272 63.2231 95.1304 62.6567 95.3136 62.0895C95.4592 61.6383 95.2824 61.2519 94.956 60.9143C94.844 60.7983 94.8008 60.6159 94.7264 60.4639C94.896 60.3911 95.0616 60.2743 95.2368 60.2567C95.4656 60.2335 95.7016 60.2879 95.9792 60.3127C96.188 59.4887 96.22 58.6311 96.1216 57.7775C96.0472 57.1311 95.8896 56.4935 95.7488 55.8559C95.664 55.4719 95.7064 55.3831 96.0984 55.3695C97.0024 55.3383 97.7976 55.6623 98.5 56.1943C100.47 57.6879 102.489 59.1247 104.251 60.8743C104.278 60.9015 104.314 60.9215 104.382 60.9727C104.382 58.4447 104.382 55.9447 104.382 53.4103C100.373 53.4103 96.3512 53.4103 92.2656 53.4103C92.2656 53.5799 92.2656 53.7447 92.2656 53.9095C92.2656 58.9495 92.2656 63.9895 92.2656 69.0287C92.2656 69.6839 92.212 69.7279 91.5696 69.6439C87.6968 69.1399 84.2552 67.6399 81.2464 65.1535C80.8744 64.8463 80.52 64.5095 80.1992 64.1495C79.348 63.1951 79.3744 62.1975 80.2744 61.2975C80.5968 60.9751 80.9848 60.7183 81.3128 60.4007C82.1304 59.6119 82.9744 58.8439 83.7264 57.9951C84.5336 57.0847 84.404 56.0775 83.432 55.3407C82.5888 54.7007 81.7016 54.1183 80.8304 53.5159C80.7376 53.4519 80.6192 53.3871 80.5112 53.3863C79.4784 53.3767 78.4464 53.3807 77.3488 53.3807C77.3488 53.5735 77.3488 53.7375 77.3488 53.9023C77.3488 60.2511 77.3488 66.5999 77.3488 72.9487C77.3488 73.5375 77.2728 73.6367 76.692 73.5015C76.0616 73.3543 75.4432 73.1399 74.836 72.9111C74.3728 72.7359 74.1968 72.3687 74.1984 71.8551C74.2104 65.8855 74.2064 59.9167 74.2056 53.9471C74.2056 53.3023 74.2592 53.3807 73.6392 53.3799C71.244 53.3775 68.848 53.3791 66.4528 53.3791C66.3144 53.3791 66.1768 53.3791 66.0384 53.3791C66.0296 53.4079 66.0208 53.4367 66.0112 53.4655C66.2784 53.6103 66.5392 53.7671 66.8128 53.8983C68.7288 54.8199 70.2712 56.1471 71.2976 58.0295C72.1728 59.6343 72.4008 61.3511 71.848 63.0783C71.2536 64.9343 69.9256 66.1631 68.0768 66.7903C66.6096 67.2879 65.0896 67.2655 63.5712 67.1479C61.936 67.0215 60.4048 66.4871 58.8944 65.8919C58.5832 65.7695 58.2832 65.5855 58.028 65.3711C57.9096 65.2719 57.8536 65.0191 57.8824 64.8559C57.8976 64.7687 58.1624 64.6535 58.2976 64.6719C58.6808 64.7239 59.072 64.7959 59.4312 64.9343C61.1344 65.5903 62.8776 65.7759 64.672 65.4311C66.6792 65.0463 68.3536 63.3575 68.7752 61.2999C69.2784 58.8439 68.1752 56.2367 66.0672 54.9047C65.948 54.8295 65.8248 54.7615 65.6592 54.6639C65.6448 54.8095 65.6264 54.9055 65.6264 55.0015C65.6248 56.4415 65.6144 57.8815 65.6312 59.3215C65.6368 59.7767 65.7288 60.2311 65.7576 60.6871C65.7848 61.1207 65.6696 61.2591 65.2456 61.2247C64.3552 61.1535 63.528 60.8639 62.84 60.2871C62.6704 60.1455 62.5712 59.8383 62.5608 59.6023C62.5272 58.8167 62.3856 58.0751 61.9624 57.3967C61.7232 57.0127 61.7856 56.9199 62.2552 56.8839C62.3056 56.8799 62.3552 56.8703 62.4448 56.8583C62.4448 55.7687 62.4432 54.6855 62.4456 53.6015C62.4464 53.3215 62.244 53.3791 62.0856 53.3791C60.6328 53.3767 59.1792 53.3775 57.7264 53.3775C57.3752 53.3775 57.024 53.3775 56.612 53.3775C56.612 53.5767 56.612 53.7423 56.612 53.9071C56.612 60.2559 56.612 66.6047 56.612 72.9527C56.612 73.5271 56.536 73.6287 55.988 73.5047C55.3688 73.3647 54.76 73.1623 54.1632 72.9439C53.6552 72.7575 53.4584 72.3727 53.46 71.8079C53.4752 65.8519 53.4696 59.8959 53.4696 53.9391C53.468 53.7759 53.468 53.6079 53.468 53.3959ZM83.0512 53.4079C83.6416 53.8119 84.1624 54.1575 84.6712 54.5191C85.5568 55.1479 86.4416 55.7759 87.0728 56.6911C87.6752 57.5647 87.7296 58.3823 87.0184 59.1647C86.1328 60.1383 85.1416 61.0151 84.1976 61.9351C83.824 62.2991 83.4328 62.6471 83.0864 63.0359C82.7976 63.3599 82.7136 63.7783 82.9016 64.1743C83.0608 64.5079 83.2608 64.8535 83.5296 65.0983C84.8432 66.2951 86.3632 67.1439 88.068 67.6543C88.388 67.7503 88.7152 67.8231 89.064 67.9135C89.064 63.0511 89.064 58.2431 89.064 53.4087C87.076 53.4079 85.1096 53.4079 83.0512 53.4079ZM47.5168 57.2295C47.4312 57.2719 47.3808 57.2871 47.3424 57.3167C46.1384 58.2391 44.92 59.1439 43.7384 60.0943C43.0392 60.6575 42.5248 61.3895 42.1128 62.1895C41.7072 62.9775 41.5728 63.8039 41.8216 64.6599C42.2296 66.0639 43.18 66.9455 44.544 67.4167C45.5024 67.7479 46.48 67.9239 47.516 67.8623C47.5168 64.3127 47.5168 60.7959 47.5168 57.2295Z" fill="url(#paint1_linear_1979_331)"/>
<path d="M83.3479 68.6447C84.4551 68.6935 85.4775 69.0191 86.4479 69.5407C86.7495 69.7023 86.7567 69.8759 86.5359 70.0807C85.8607 70.7055 85.0719 71.1311 84.1703 71.3151C83.9975 71.3503 83.7775 71.2759 83.6095 71.1911C82.7071 70.7399 81.7543 70.4951 80.7511 70.4231C80.6063 70.4127 80.4671 70.3287 80.3247 70.2791C80.3855 70.1263 80.4087 69.9375 80.5135 69.8263C81.2807 69.0175 82.2223 68.6047 83.3479 68.6447Z" fill="url(#paint2_linear_1979_331)"/>
<defs>
<linearGradient id="paint0_linear_1979_331" x1="-6.35079" y1="69.8099" x2="105.049" y2="-5.25319" gradientUnits="userSpaceOnUse">
<stop stop-color="#662D91"/>
<stop offset="1" stop-color="#92278F"/>
</linearGradient>
<linearGradient id="paint1_linear_1979_331" x1="23.1381" y1="86.6417" x2="124.497" y2="32.6153" gradientUnits="userSpaceOnUse">
<stop stop-color="#009444"/>
<stop offset="1" stop-color="#8DC63F"/>
</linearGradient>
<linearGradient id="paint2_linear_1979_331" x1="29.5624" y1="98.6946" x2="130.922" y2="44.6682" gradientUnits="userSpaceOnUse">
<stop stop-color="#009444"/>
<stop offset="1" stop-color="#8DC63F"/>
</linearGradient>
</defs>
</svg>
