<svg width="104" height="14" viewBox="0 0 104 14" fill="none" xmlns="http://www.w3.org/2000/svg">
<path d="M49.32 0C68.05 0.07 83.42 1.73999 98.07 7.50999C99.45 8.04999 100.79 8.68 102.13 9.32C103.13 9.8 103.71 10.73 103.13 11.68C102.55 12.63 101.8 11.83 101.01 11.6C82.36 6.1 63.26 5.59999 44.01 6.75999C30.49 7.53999 17.53 11.76 4.08001 12.89C2.78001 13.01 0.61001 14.65 0.0800098 12.01C-0.35999 9.93999 1.33 8.89999 3.01 8.00999C8.79 5.10999 15.07 3.71 21.37 2.57C30.6181 1.08475 39.9561 0.226125 49.32 0Z" fill="#7FC94D"/>
</svg>
